<svg width="20" height="18" viewBox="0 0 20 18" fill="none" xmlns="http://www.w3.org/2000/svg">
<path d="M14.9992 5.71714H11.9993V0H7.99946V5.71714H4.99956L9.99939 10.4814L14.9992 5.71714ZM19.3371 11.9412C19.1271 11.7278 17.7261 10.2994 17.3261 9.92687C17.0458 9.67084 16.6724 9.5281 16.2842 9.52857H14.5272L17.5911 12.3814H14.0472C13.9991 12.3806 13.9515 12.3919 13.9094 12.4141C13.8673 12.4364 13.832 12.4688 13.8073 12.5082L12.9913 14.2929H7.00749L6.19152 12.5082C6.16659 12.4689 6.13132 12.4366 6.08922 12.4144C6.04712 12.3921 5.99965 12.3808 5.95153 12.3814H2.40765L5.47055 9.52857H3.71461C3.31762 9.52857 2.93863 9.68008 2.67264 9.92687C2.27266 10.3004 0.871706 11.7287 0.661714 11.9412C0.172731 12.4376 -0.0962598 12.8331 0.0317357 13.3219L0.592716 16.251C0.720712 16.7408 1.28369 17.1429 1.84467 17.1429H18.1561C18.7171 17.1429 19.2801 16.7408 19.4081 16.251L19.969 13.3219C20.095 12.8331 19.827 12.4376 19.3371 11.9412Z" fill="#D63277"/>
</svg>
