<svg width="20" height="16" viewBox="0 0 20 16" fill="none" xmlns="http://www.w3.org/2000/svg">
<path d="M8.80884 8.62637C8.80884 9.17866 8.36112 9.62637 7.80884 9.62637H4.37176C3.81947 9.62637 3.37176 10.0741 3.37176 10.6264V15C3.37176 15.5523 2.92404 16 2.37176 16H1C0.447715 16 0 15.5523 0 15V1C0 0.447715 0.447715 0 1 0H8.35639C8.90867 0 9.35639 0.447715 9.35639 1V1.97802C9.35639 2.53031 8.90867 2.97802 8.35639 2.97802H4.37176C3.81947 2.97802 3.37176 3.42574 3.37176 3.97802V5.65934C3.37176 6.21163 3.81947 6.65934 4.37176 6.65934H7.80884C8.36112 6.65934 8.80884 7.10706 8.80884 7.65934V8.62637Z" fill="white"/>
<path d="M14.1306 12.033C14.1306 12.5853 14.5784 13.033 15.1306 13.033H19C19.5523 13.033 20 13.4807 20 14.033V15C20 15.5523 19.5523 16 19 16H11.7589C11.2066 16 10.7589 15.5523 10.7589 15V1C10.7589 0.447715 11.2066 0 11.7589 0H13.1306C13.6829 0 14.1306 0.447715 14.1306 1V12.033Z" fill="white"/>
</svg>
