<svg width="27" height="16" viewBox="0 0 27 16" fill="none" xmlns="http://www.w3.org/2000/svg">
<path d="M26.7594 13.7408C26.6868 13.6193 26.2379 12.6438 24.0777 10.6389C21.8163 8.53953 22.1201 8.88043 24.8439 5.25035C26.5028 3.03956 27.1661 1.68946 26.9585 1.11229C26.761 0.562122 25.5409 0.707258 25.5409 0.707258L21.4838 0.730885C21.4838 0.730885 21.1834 0.690382 20.959 0.823704C20.7413 0.955339 20.6012 1.25911 20.6012 1.25911C20.6012 1.25911 19.9582 2.97036 19.1009 4.4251C17.2935 7.49489 16.5695 7.6569 16.2741 7.4662C15.5873 7.02235 15.7594 5.68069 15.7594 4.72887C15.7594 1.75359 16.21 0.513181 14.8802 0.192532C14.438 0.0862118 14.114 0.0153316 12.985 0.00351821C11.537 -0.0116704 10.3101 0.00858107 9.61646 0.347794C9.15405 0.573936 8.79797 1.07854 9.01567 1.10723C9.284 1.14267 9.89155 1.27093 10.2139 1.70971C10.6307 2.27506 10.6155 3.54753 10.6155 3.54753C10.6155 3.54753 10.8552 7.04935 10.0569 7.48476C9.50846 7.78347 8.75746 7.17424 7.14578 4.38797C6.32053 2.96193 5.69611 1.384 5.69611 1.384C5.69611 1.384 5.57629 1.09035 5.36196 0.9334C5.10207 0.742698 4.73754 0.681944 4.73754 0.681944L0.879629 0.70557C0.879629 0.70557 0.300774 0.722447 0.0881333 0.973903C-0.100881 1.19836 0.0729446 1.66077 0.0729446 1.66077C0.0729446 1.66077 3.09379 8.72685 6.51292 12.2894C9.65022 15.555 13.2111 15.3407 13.2111 15.3407H14.8245C14.8245 15.3407 15.3122 15.2867 15.5603 15.0183C15.7898 14.7719 15.7814 14.3095 15.7814 14.3095C15.7814 14.3095 15.7493 12.1443 16.7551 11.8253C17.7458 11.5114 19.0182 13.918 20.3666 14.8445C21.386 15.5449 22.1606 15.3913 22.1606 15.3913L25.767 15.3407C25.767 15.3407 27.6538 15.2242 26.7594 13.7408Z" fill="white"/>
</svg>
