<svg width="27" height="40" viewBox="0 0 27 40" fill="none" xmlns="http://www.w3.org/2000/svg">
<path d="M0.32 33.04C0.32 31.92 0.5 30.88 0.86 29.92C1.26 28.92 1.76 28.08 2.36 27.4C2.84 26.84 3.56 26.24 4.52 25.6C5.52 24.92 6.46 24.36 7.34 23.92C8.1 23.52 9.1 23.06 10.34 22.54L16.82 19.66C19.38 18.54 20.66 16.8 20.66 14.44V9.1C20.66 7.26 20.1 6.04 18.98 5.44C17.86 4.8 15.9 4.48 13.1 4.48C10.34 4.48 6.54 4.9 1.7 5.74V1.54C5.74 0.779998 9.92 0.399998 14.24 0.399998C18.56 0.399998 21.68 1.06 23.6 2.38C25.52 3.66 26.48 5.82 26.48 8.86V15.22C26.48 16.66 26.24 17.86 25.76 18.82C25.28 19.74 24.5 20.58 23.42 21.34C22.38 22.06 20.84 22.88 18.8 23.8L9.8 27.94C7.16 29.14 5.84 30.9 5.84 33.22V35.8H26.48V40H0.32V33.04Z" fill="white"/>
</svg>
