<svg width="27" height="41" viewBox="0 0 27 41" fill="none" xmlns="http://www.w3.org/2000/svg">
<path d="M11.96 40.6C8.6 40.6 4.82 40.22 0.62 39.46V35.14C5.38 36.14 9.36 36.64 12.56 36.64C17.88 36.64 20.54 35.14 20.54 32.14V25.48C20.54 23.84 19.66 22.76 17.9 22.24C17.06 22.04 16.3 21.92 15.62 21.88C14.98 21.8 14.14 21.76 13.1 21.76H5.6V18.04H12.08C13.12 18.04 13.96 18.02 14.6 17.98C15.24 17.9 15.98 17.74 16.82 17.5C17.7 17.3 18.38 16.92 18.86 16.36C19.34 15.8 19.58 15.08 19.58 14.2V7.24C19.58 5.2 17.18 4.18 12.38 4.18C9.18 4.18 5.52 4.5 1.4 5.14V0.999998C4.84 0.639998 8.48 0.459998 12.32 0.459998C16.76 0.459998 19.98 0.959998 21.98 1.96C24.02 2.92 25.04 4.58 25.04 6.94V14.44C25.04 15.68 24.54 16.72 23.54 17.56C22.54 18.36 21.26 18.88 19.7 19.12V19.36C20.66 19.52 21.44 19.7 22.04 19.9C22.68 20.06 23.36 20.32 24.08 20.68C25.48 21.4 26.18 22.66 26.18 24.46V32.26C26.18 33.62 25.88 34.84 25.28 35.92C24.68 37 23.92 37.84 23 38.44C22.2 39 21.14 39.46 19.82 39.82C18.5 40.14 17.2 40.36 15.92 40.48C14.4 40.56 13.08 40.6 11.96 40.6Z" fill="white"/>
</svg>
