<svg width="204" height="42" viewBox="0 0 204 42" fill="none" xmlns="http://www.w3.org/2000/svg">
<path d="M26.213 11.7305V40.8675H20.9547V16.574H5.2583V40.8675H0V11.7305H26.213Z" fill="#353535"/>
<path d="M52.5046 11.7305H56.7426V40.8675H51.5628V20.4337L34.7676 40.8675H30.5296V11.7305H35.7094V32.2399L52.5046 11.7305Z" fill="#353535"/>
<path d="M100.693 40.8675H94.4925L83.1911 27.018V40.8675H78.0112V27.0936L66.7098 40.8675H60.5882L73.2238 25.8071L61.2161 11.7305H67.3377L78.0112 24.5962V11.7305H83.1911V24.5962L93.8646 11.7305H100.065L87.9785 25.8828L100.693 40.8675Z" fill="#353535"/>
<path d="M128.397 11.7304H133.655V40.8675H128.397V35.8726C125.807 39.7323 121.961 41.6243 116.938 41.6243C112.7 41.6243 109.09 40.1107 106.108 37.1591C103.126 34.2076 101.634 30.5749 101.634 26.2611C101.634 21.9473 103.126 18.3903 106.108 15.3631C109.09 12.4116 112.7 10.8979 116.938 10.8979C121.961 10.8979 125.728 12.79 128.397 16.6497V11.7304ZM117.566 36.7807C120.627 36.7807 123.217 35.7969 125.258 33.7535C127.298 31.7858 128.318 29.2884 128.318 26.3368C128.318 23.3853 127.298 20.8878 125.258 18.9201C123.217 16.9524 120.627 15.8929 117.566 15.8929C114.505 15.8929 111.994 16.8767 109.953 18.9201C107.913 20.8878 106.893 23.3853 106.893 26.3368C106.893 29.2884 107.913 31.7858 109.953 33.7535C111.994 35.7212 114.584 36.7807 117.566 36.7807Z" fill="#353535"/>
<path d="M169.443 11.7305V40.8675H164.263V19.6769L154.61 34.586H153.982L144.407 19.7526V40.9432H139.227V11.7305H144.878L154.296 26.4882L163.792 11.7305H169.443Z" fill="#353535"/>
<path d="M181.686 0L177.762 14.1523H173.21L175.643 0H181.686Z" fill="#353535"/>
<path d="M186.395 19.6012C186.395 20.7364 186.945 21.6446 188.122 22.3257C189.299 23.0069 190.712 23.5366 192.36 23.9907C194.008 24.3691 195.656 24.8989 197.304 25.353C198.952 25.8827 200.365 26.7909 201.542 28.0018C202.719 29.2884 203.269 30.8776 203.269 32.8453C203.269 35.4942 202.249 37.6132 200.13 39.2025C198.01 40.7918 195.264 41.6243 191.967 41.6243C188.985 41.6243 186.474 41.0189 184.433 39.7323C182.314 38.5214 180.823 36.8564 179.96 34.7374L184.512 32.2399C184.982 33.6021 185.924 34.7374 187.258 35.5698C188.593 36.4023 190.162 36.7807 192.046 36.7807C193.772 36.7807 195.185 36.478 196.362 35.7969C197.461 35.1914 198.089 34.1319 198.089 32.7697C198.089 31.6345 197.54 30.7263 196.362 30.0452C195.185 29.364 193.772 28.8343 192.124 28.3802C190.476 28.0018 188.828 27.472 187.18 26.9422C185.532 26.4125 184.119 25.5043 182.942 24.2934C181.765 23.0825 181.215 21.4176 181.215 19.5255C181.215 17.0281 182.236 14.909 184.276 13.3197C186.317 11.6548 188.828 10.8979 191.967 10.8979C194.4 10.8979 196.598 11.4277 198.56 12.4872C200.443 13.5468 201.935 15.0604 202.876 16.9524L198.481 19.3742C197.383 16.8767 195.264 15.6658 192.046 15.6658C190.555 15.6658 189.299 16.0442 188.2 16.6497C186.945 17.4065 186.395 18.3903 186.395 19.6012Z" fill="#353535"/>
</svg>
