<svg width="180" height="51" viewBox="0 0 180 51" fill="none" xmlns="http://www.w3.org/2000/svg">
<path fill-rule="evenodd" clip-rule="evenodd" d="M13.7447 0C6.56505 0 0.744751 5.82031 0.744751 13V37.4799C0.744751 44.6596 6.56506 50.4799 13.7448 50.4799H39.0695C46.2492 50.4799 52.0695 44.6596 52.0695 37.4799V13C52.0695 5.8203 46.2492 0 39.0695 0H13.7447ZM21.4818 42.2196C27.4493 34.461 32.7348 15.8402 17.8282 9.33767C21.6036 8.7219 30.3965 9.55935 35.3653 17.8352C35.4871 16.9732 34.8538 14.3623 31.3464 10.8155C38.8971 14.7564 47.4951 26.5545 21.4818 42.2196ZM13.8093 42.2196C17.3411 40.2492 25.5007 33.8698 26.9621 25.5939C26.9621 28.6728 25.4276 36.3083 19.2897 42.2196H13.8093Z" fill="#353535"/>
<path d="M68.3907 35.795V16.7136H80.6527V19.6598H71.9182V24.5334H79.6729V27.4796H71.9182V35.795H68.3907Z" fill="#353535"/>
<path d="M91.2739 24.3957C90.9939 24.3039 90.602 24.2121 90.0981 24.1204C89.6128 24.0102 89.0436 23.9552 88.3903 23.9552C88.0171 23.9552 87.6158 23.9919 87.1865 24.0653C86.7759 24.1387 86.4867 24.203 86.3187 24.258V35.795H82.9313V22.0828C83.5845 21.8442 84.3963 21.6239 85.3668 21.422C86.356 21.2017 87.4478 21.0916 88.6423 21.0916C88.8663 21.0916 89.1276 21.1099 89.4262 21.1466C89.7248 21.165 90.0234 21.2017 90.322 21.2568C90.6206 21.2935 90.9099 21.3486 91.1899 21.422C91.4698 21.4771 91.6938 21.5321 91.8618 21.5872L91.2739 24.3957Z" fill="#353535"/>
<path d="M93.4105 28.6636C93.4105 27.397 93.5971 26.2864 93.9704 25.3319C94.3623 24.3774 94.8756 23.588 95.5101 22.9639C96.1447 22.3214 96.8726 21.8442 97.6938 21.5321C98.515 21.2017 99.3548 21.0365 100.213 21.0365C102.229 21.0365 103.797 21.6514 104.917 22.8813C106.055 24.1112 106.624 25.9468 106.624 28.3882C106.624 28.5718 106.615 28.7829 106.596 29.0215C106.596 29.2418 106.587 29.4437 106.568 29.6273H96.9099C97.0032 30.7837 97.4138 31.6832 98.1417 32.3256C98.8882 32.9498 99.9614 33.2618 101.361 33.2618C102.182 33.2618 102.929 33.1884 103.601 33.0415C104.291 32.8947 104.833 32.7387 105.224 32.5735L105.672 35.2994C105.486 35.3912 105.224 35.4921 104.889 35.6023C104.571 35.694 104.198 35.7766 103.769 35.8501C103.358 35.9418 102.91 36.0153 102.425 36.0703C101.94 36.1254 101.445 36.1529 100.941 36.1529C99.6534 36.1529 98.5336 35.9694 97.5818 35.6023C96.6299 35.2168 95.8461 34.6936 95.2302 34.0328C94.6143 33.3536 94.157 32.5643 93.8584 31.6648C93.5598 30.747 93.4105 29.7466 93.4105 28.6636ZM103.237 27.1767C103.237 26.7178 103.172 26.2864 103.041 25.8826C102.91 25.4604 102.714 25.1024 102.453 24.8087C102.21 24.4967 101.902 24.258 101.529 24.0928C101.175 23.9093 100.745 23.8175 100.241 23.8175C99.7188 23.8175 99.2615 23.9184 98.8696 24.1204C98.4776 24.3039 98.1417 24.5517 97.8617 24.8638C97.6004 25.1759 97.3951 25.5338 97.2458 25.9376C97.0965 26.3415 96.9939 26.7545 96.9379 27.1767H103.237Z" fill="#353535"/>
<path d="M109.404 28.6636C109.404 27.397 109.591 26.2864 109.964 25.3319C110.356 24.3774 110.869 23.588 111.504 22.9639C112.138 22.3214 112.866 21.8442 113.687 21.5321C114.508 21.2017 115.348 21.0365 116.207 21.0365C118.222 21.0365 119.79 21.6514 120.91 22.8813C122.048 24.1112 122.618 25.9468 122.618 28.3882C122.618 28.5718 122.608 28.7829 122.59 29.0215C122.59 29.2418 122.58 29.4437 122.562 29.6273H112.903C112.997 30.7837 113.407 31.6832 114.135 32.3256C114.882 32.9498 115.955 33.2618 117.355 33.2618C118.176 33.2618 118.922 33.1884 119.594 33.0415C120.285 32.8947 120.826 32.7387 121.218 32.5735L121.666 35.2994C121.479 35.3912 121.218 35.4921 120.882 35.6023C120.565 35.694 120.191 35.7766 119.762 35.8501C119.352 35.9418 118.904 36.0153 118.418 36.0703C117.933 36.1254 117.439 36.1529 116.935 36.1529C115.647 36.1529 114.527 35.9694 113.575 35.6023C112.623 35.2168 111.839 34.6936 111.224 34.0328C110.608 33.3536 110.15 32.5643 109.852 31.6648C109.553 30.747 109.404 29.7466 109.404 28.6636ZM119.23 27.1767C119.23 26.7178 119.165 26.2864 119.034 25.8826C118.904 25.4604 118.708 25.1024 118.446 24.8087C118.204 24.4967 117.896 24.258 117.523 24.0928C117.168 23.9093 116.739 23.8175 116.235 23.8175C115.712 23.8175 115.255 23.9184 114.863 24.1204C114.471 24.3039 114.135 24.5517 113.855 24.8638C113.594 25.1759 113.389 25.5338 113.239 25.9376C113.09 26.3415 112.987 26.7545 112.931 27.1767H119.23Z" fill="#353535"/>
<path d="M128.869 28.5534C128.869 30.0219 129.223 31.1784 129.933 32.0228C130.642 32.8488 131.622 33.2618 132.872 33.2618C133.413 33.2618 133.871 33.2435 134.244 33.2067C134.636 33.1517 134.953 33.0966 135.196 33.0415V24.7812C134.897 24.5793 134.496 24.3957 133.992 24.2305C133.507 24.0469 132.984 23.9552 132.424 23.9552C131.192 23.9552 130.287 24.3682 129.709 25.1942C129.149 26.0202 128.869 27.14 128.869 28.5534ZM138.583 35.3544C137.911 35.5564 137.062 35.7399 136.036 35.9051C135.028 36.0703 133.964 36.1529 132.844 36.1529C131.687 36.1529 130.651 35.9786 129.737 35.6298C128.822 35.281 128.038 34.7854 127.385 34.1429C126.75 33.4821 126.256 32.6928 125.901 31.775C125.565 30.8388 125.397 29.7925 125.397 28.636C125.397 27.4979 125.537 26.47 125.817 25.5522C126.116 24.616 126.545 23.8175 127.105 23.1567C127.665 22.4958 128.346 21.991 129.149 21.6423C129.951 21.2751 130.875 21.0916 131.92 21.0916C132.629 21.0916 133.255 21.1742 133.796 21.3394C134.337 21.5046 134.804 21.6882 135.196 21.8901V14.9789L138.583 14.4282V35.3544Z" fill="#353535"/>
<path d="M156.128 28.581C156.128 29.719 155.96 30.7562 155.624 31.6924C155.288 32.6285 154.812 33.427 154.196 34.0879C153.58 34.7487 152.834 35.2627 151.957 35.6298C151.098 35.9969 150.146 36.1805 149.101 36.1805C148.056 36.1805 147.104 35.9969 146.246 35.6298C145.387 35.2627 144.65 34.7487 144.034 34.0879C143.418 33.427 142.933 32.6285 142.578 31.6924C142.242 30.7562 142.074 29.719 142.074 28.581C142.074 27.4429 142.242 26.4149 142.578 25.4971C142.933 24.5609 143.418 23.7624 144.034 23.1016C144.668 22.4408 145.415 21.936 146.274 21.5872C147.132 21.2201 148.075 21.0365 149.101 21.0365C150.128 21.0365 151.07 21.2201 151.929 21.5872C152.806 21.936 153.552 22.4408 154.168 23.1016C154.784 23.7624 155.26 24.5609 155.596 25.4971C155.951 26.4149 156.128 27.4429 156.128 28.581ZM152.656 28.581C152.656 27.1492 152.339 26.0202 151.705 25.1942C151.089 24.3498 150.221 23.9276 149.101 23.9276C147.981 23.9276 147.104 24.3498 146.469 25.1942C145.854 26.0202 145.546 27.1492 145.546 28.581C145.546 30.0311 145.854 31.1784 146.469 32.0228C147.104 32.8672 147.981 33.2894 149.101 33.2894C150.221 33.2894 151.089 32.8672 151.705 32.0228C152.339 31.1784 152.656 30.0311 152.656 28.581Z" fill="#353535"/>
<path d="M167.96 28.223C167.96 26.7178 167.764 25.6348 167.372 24.9739C166.999 24.2948 166.29 23.9552 165.245 23.9552C164.871 23.9552 164.461 23.9827 164.013 24.0378C163.565 24.0928 163.229 24.1387 163.005 24.1754V35.795H159.618V21.8625C160.271 21.679 161.12 21.5046 162.165 21.3394C163.229 21.1742 164.349 21.0916 165.525 21.0916C166.533 21.0916 167.354 21.2201 167.988 21.4771C168.641 21.734 169.183 22.0736 169.612 22.4958C169.817 22.349 170.079 22.193 170.396 22.0277C170.713 21.8625 171.068 21.7157 171.46 21.5872C171.852 21.4403 172.262 21.321 172.691 21.2292C173.139 21.1375 173.587 21.0916 174.035 21.0916C175.174 21.0916 176.107 21.2568 176.835 21.5872C177.581 21.8992 178.16 22.349 178.57 22.9364C179 23.5054 179.289 24.203 179.438 25.029C179.606 25.8367 179.69 26.727 179.69 27.6999V35.795H176.303V28.223C176.303 26.7178 176.116 25.6348 175.743 24.9739C175.37 24.2948 174.651 23.9552 173.587 23.9552C173.046 23.9552 172.533 24.0469 172.048 24.2305C171.562 24.3957 171.198 24.5609 170.956 24.7261C171.105 25.185 171.208 25.6715 171.264 26.1855C171.32 26.6994 171.348 27.2501 171.348 27.8375V35.795H167.96V28.223Z" fill="#353535"/>
</svg>
