<svg width="77" height="64" viewBox="0 0 77 64" fill="none" xmlns="http://www.w3.org/2000/svg">
<path d="M10.8203 18.0174C10.7951 18.1228 10.7908 18.1172 10.7641 18.2574C10.7359 18.4113 10.6917 18.562 10.6321 18.7069C10.5961 18.8197 10.5445 18.9271 10.4789 19.026C10.3678 19.205 10.3116 19.2938 10.2569 19.3687C10.1416 19.5269 10.1009 19.5519 9.93788 19.753C9.83247 19.882 9.76082 19.9806 9.68773 20.0832C9.61463 20.186 9.56124 20.2608 9.26614 20.7007L9.05675 21.0156C8.91627 21.2446 8.90783 21.2931 8.7097 21.6469C8.58603 21.8689 8.58458 21.9244 8.46375 22.145C8.35698 22.4643 8.28583 22.7941 8.25155 23.1287C8.25155 23.3049 8.25155 23.377 8.23751 23.6365C8.22907 23.9778 8.22345 24.1485 8.22345 24.1998C8.22345 24.5162 8.23751 24.5924 8.26561 25.3791C8.27235 25.5347 8.26765 25.6905 8.25155 25.8453C8.23891 25.966 8.22064 26.0576 8.19535 26.1894C8.14897 26.4336 8.13071 26.4572 8.08433 26.6833C8.03375 26.9344 8.01688 26.9608 7.97332 27.1634C7.92976 27.3659 7.91852 27.4409 7.90165 27.5491C7.87092 27.7003 7.84933 27.8532 7.83702 28.0069C7.81734 28.1818 7.79064 28.3122 7.77939 28.5217C7.74426 28.8949 7.70913 29.0683 7.70211 29.3375C7.68946 29.8356 7.68946 29.6469 7.69508 30.059C7.69508 30.3919 7.68665 30.3864 7.67119 30.8026C7.66276 31.0329 7.67119 31.4756 7.67119 31.6088C7.66276 32.0943 7.64871 33.0378 7.63044 34.2574C7.57424 34.1977 7.48992 34.1061 7.38031 33.9966C7.27163 33.9023 7.17363 33.7967 7.08802 33.6816C7.0188 33.5721 6.97113 33.4506 6.9475 33.3236C6.90253 33.1113 6.94047 33.0198 6.96155 32.666C6.97927 32.4467 6.97927 32.2263 6.96155 32.0069C6.92701 31.6094 6.81386 31.2224 6.62851 30.8679C6.53871 30.6916 6.43634 30.522 6.32216 30.36C6.17416 30.1405 6.00164 29.938 5.80785 29.7565C5.62113 29.5782 5.41682 29.4188 5.19797 29.2806C4.83683 29.0267 4.7483 29.0031 4.41948 28.7381C4.24934 28.6021 4.06789 28.4805 3.87705 28.3746C3.5412 28.1762 3.45548 28.1332 3.19692 27.9764C2.86388 27.7794 2.72476 27.6892 2.58563 27.606C2.17796 27.3646 1.75015 27.1581 1.30687 26.9886C1.34998 27.0466 1.39692 27.1017 1.4474 27.1537C1.53574 27.2513 1.62957 27.3439 1.72845 27.4312C1.90764 27.6127 2.06772 27.8116 2.20623 28.0249C2.2717 28.135 2.32899 28.2495 2.37766 28.3677C2.47749 28.565 2.55658 28.7719 2.61375 28.9851C2.75427 29.3708 2.72757 29.3472 2.82313 29.6025C2.8976 29.8023 2.9229 29.8398 3.24469 30.5363C3.43862 30.9622 3.42597 30.9428 3.49482 31.0912C3.61605 31.3762 3.75984 31.6513 3.92483 31.914C4.12826 32.1792 4.36967 32.4138 4.6415 32.6105C4.81852 32.7671 5.01495 32.9009 5.22608 33.0087C5.4734 33.1266 5.61111 33.1377 6.08749 33.3112C6.25612 33.3722 6.39242 33.4263 6.47674 33.461C6.61763 33.5628 6.74801 33.678 6.86599 33.8051C6.99808 33.9439 7.0557 34.0409 7.21309 34.2435C7.30021 34.3559 7.4309 34.521 7.60234 34.7097C7.64241 34.9181 7.6673 35.129 7.67681 35.341C7.68806 35.5934 7.69368 35.6532 7.72319 35.9182C7.76394 36.2858 7.76815 36.3053 7.8061 36.6271C7.86371 37.1141 7.8595 37.0864 7.92133 37.4415C7.97753 37.7579 8.03093 37.9966 8.08855 38.2227C8.16022 38.5001 8.16724 38.514 8.24172 38.8137C8.34711 39.2397 8.37241 39.3118 8.49185 39.8016C8.56633 40.1041 8.62117 40.3289 8.71388 40.6244C8.85444 41.0864 8.89939 41.0863 9.075 41.6399C9.14673 41.8619 9.19168 42.0257 9.28439 42.3531C9.31253 42.4558 9.34622 42.5765 9.38136 42.7374C9.39962 42.8234 9.41369 42.8942 9.4235 42.9428C9.29462 42.9369 9.16771 42.9092 9.0483 42.8609C8.90647 42.7911 8.77145 42.7084 8.64505 42.6139C8.3977 42.4585 8.37944 42.4752 8.24172 42.3809C8.08964 42.2668 7.95396 42.1328 7.83842 41.9827C7.52926 41.6233 7.52224 41.5664 7.29599 41.3112C7.12161 41.1112 6.93381 40.923 6.7339 40.7478C6.55317 40.5901 6.36262 40.4436 6.16338 40.3094C5.90199 40.1305 5.77553 40.0236 5.60128 39.9792C5.33709 39.9165 5.0664 39.8843 4.79467 39.8835C4.00773 39.8349 4.17075 39.8321 3.78009 39.828C3.38946 39.8114 2.99813 39.8346 2.61234 39.8974C2.35097 39.9445 2.36642 39.9584 1.89005 40.0791C1.73407 40.1179 1.71158 40.1485 1.26471 40.2539C0.740561 40.3774 0.609873 40.4135 0.500265 40.4454C0.286668 40.5092 0.113824 40.5689 0 40.6105C0.173246 40.6702 0.349624 40.7207 0.52837 40.7617C0.852982 40.8366 0.893734 40.8324 1.1256 40.9005C1.32325 40.9572 1.51444 41.0339 1.69612 41.1294C1.86548 41.2281 2.02792 41.338 2.18234 41.4582C2.58424 41.7565 2.6039 41.7995 2.88495 42.0131C3.06341 42.1422 3.02548 42.1048 3.56649 42.4655C4.01758 42.7679 4.06114 42.8054 4.24663 42.9192C4.47166 43.0676 4.7113 43.193 4.9619 43.2938C5.15025 43.3619 5.34593 43.4085 5.54507 43.4325C5.76656 43.462 5.99106 43.462 6.21255 43.4325C6.41875 43.4241 6.62143 43.377 6.80978 43.2938C6.85896 43.2688 6.87583 43.2564 7.21309 43.0468L7.47727 42.8817C7.62807 42.852 7.78162 42.8381 7.93538 42.8401C8.09006 42.8431 8.24402 42.8617 8.39489 42.8956C8.57622 42.926 8.75354 42.9768 8.92327 43.0468C9.15219 43.1455 9.35978 43.2868 9.53454 43.4631C9.63485 43.5681 9.72338 43.6835 9.79869 43.8072C9.90522 44.0091 9.99358 44.2199 10.0629 44.4371C10.1525 44.6354 10.2543 44.8281 10.3678 45.0142C10.5477 45.3458 10.5295 45.3458 10.84 45.9743C10.9932 46.2837 11.1393 46.5779 11.3402 46.9455C11.4105 47.0745 11.5539 47.3395 11.7436 47.66C12.0246 48.1277 12.1033 48.2151 12.6893 49.1141C12.877 49.418 13.0883 49.707 13.3216 49.9785C13.5633 50.2865 13.5915 50.342 13.9947 50.811C14.4304 51.3215 14.3939 51.3035 14.6974 51.6628C14.9461 51.9625 15.2229 52.2179 15.5405 52.5411L15.875 52.8699C15.6916 52.9337 15.4933 52.9433 15.3045 52.8977C15.1358 52.8519 15.0402 52.7714 14.7901 52.5813C14.5808 52.4218 14.3686 52.2747 14.1507 52.1151C13.7291 51.7988 13.5254 51.642 13.3723 51.5394C13.0512 51.2966 12.6956 51.1021 12.3169 50.9622C11.9347 50.836 11.6368 50.8234 11.0522 50.811C10.6621 50.7946 10.2712 50.8131 9.88441 50.8665C9.49693 50.9251 9.11551 51.0179 8.74475 51.1439C8.48342 51.23 8.5804 51.2147 7.60514 51.624C7.07257 51.8474 6.76201 51.9667 6.28422 52.1998C6.1437 52.2678 6.02706 52.3261 5.95118 52.3649C6.23191 52.3462 6.5136 52.3462 6.79432 52.3649C7.07058 52.3779 7.34516 52.4146 7.61499 52.4745C7.8498 52.5342 8.08031 52.6092 8.30495 52.6993C8.47499 52.7617 8.53545 52.7895 9.01461 52.9879C9.59075 53.2265 9.52474 53.196 9.77907 53.3028C10.424 53.5803 10.3678 53.5734 10.6404 53.6746C10.9272 53.7849 11.2194 53.8808 11.5159 53.9619C11.6938 54.0226 11.8749 54.074 12.0584 54.1159C12.2883 54.1698 12.5261 54.1839 12.761 54.1575C13.2331 54.1311 13.4636 54.1187 13.6926 54.034C13.8954 53.9704 14.0809 53.8622 14.2351 53.7177C14.3361 53.5986 14.4475 53.4886 14.5681 53.3888C14.6797 53.3002 14.8184 53.2513 14.9616 53.2501L16.0548 53.239C16.149 53.3181 16.2896 53.436 16.4582 53.5816C16.8952 53.9619 17.1608 54.2158 17.5149 54.5529C18.2582 55.2591 18.6292 55.6115 18.9876 55.8848C19.2236 56.0652 19.1281 55.9778 19.849 56.4883C20.6753 57.0753 20.7399 57.1488 21.1699 57.4346C21.5423 57.6829 21.8262 57.8509 22.3924 58.1755C22.7129 58.3614 23.2018 58.6445 23.8651 58.9858C24.4694 59.2966 24.7715 59.4533 25.0469 59.5615C25.21 59.6268 25.4685 59.7211 25.8114 59.8918C26.0208 59.9944 26.188 60.0888 26.2976 60.1526L26.1318 60.2761C25.8117 60.2981 25.4903 60.2888 25.1721 60.2483C25.0031 60.2286 24.8359 60.1966 24.6717 60.1526C24.4543 60.0819 24.2408 59.9994 24.0324 59.9057C23.9424 59.871 23.7162 59.8044 23.2679 59.6712C22.8562 59.5505 22.6496 59.4894 22.5456 59.4659C22.2801 59.4056 22.0106 59.3643 21.739 59.3423C21.4426 59.3236 21.1451 59.3283 20.8495 59.3562C20.4931 59.3676 20.1391 59.4183 19.7941 59.5075C19.5599 59.5751 19.3319 59.6623 19.1127 59.7683C18.8148 59.907 18.6911 59.9944 18.3763 60.1665C17.7819 60.4883 17.7678 60.462 17.3055 60.7214C16.9093 60.9533 16.5286 61.21 16.1659 61.4901C15.7935 61.7676 15.8595 61.7496 15.2763 62.2033C14.8098 62.5667 14.7396 62.6014 14.3868 62.89C14.0861 63.137 14.0257 63.2036 13.7348 63.4451C13.4439 63.6864 13.1727 63.8738 13.0111 64C13.4748 63.8252 13.836 63.6698 14.0819 63.5602C14.272 63.4851 14.4686 63.427 14.6693 63.3868C14.9196 63.3054 15.1802 63.2587 15.4436 63.248C15.9143 63.2328 16.1462 63.248 16.6394 63.2619H17.7509C18.7248 63.2619 18.7614 63.2619 19.0298 63.2619C19.2981 63.2619 19.2223 63.2619 20.0851 63.2896C20.2256 63.2896 20.702 63.3035 21.309 63.2896C21.5379 63.299 21.767 63.2756 21.9892 63.2202C22.2283 63.1368 22.457 63.0264 22.6707 62.8915C22.869 62.7903 23.0572 62.6709 23.2328 62.5348C23.4296 62.3711 23.4492 62.3017 23.7373 62.0229C23.8697 61.9049 23.9958 61.7804 24.1153 61.6497C24.371 61.3722 24.4048 61.282 24.6085 61.121C24.7903 61.0008 24.9867 60.9039 25.1931 60.8324C25.3756 60.7518 25.5635 60.6833 25.7552 60.6271C25.9758 60.5612 26.2029 60.518 26.4326 60.4981C26.7261 60.479 27.021 60.5019 27.308 60.5661C27.8532 60.684 27.9755 60.7728 28.6894 61.0419C28.7779 61.0753 29.035 61.1544 29.5409 61.2986C30.0468 61.4429 30.4416 61.5595 30.5597 61.5914C31.0178 61.7149 31.2371 61.812 31.4773 61.8689C31.9509 61.9827 32.18 62.0201 32.5482 62.0895C32.9936 62.1727 33.4053 62.2504 33.966 62.3225C34.3074 62.367 34.642 62.41 35.0775 62.4322C35.6059 62.46 35.9431 62.4738 36.4828 62.4696C36.9409 62.4696 37.548 62.4419 38.3307 62.3919L38.2885 61.9119C37.7672 61.9022 37.4046 61.9604 37.0941 61.9521C36.3395 61.9327 36.0739 61.9244 35.9544 61.9244C35.5697 61.9094 35.186 61.8746 34.8049 61.8203C34.3117 61.7565 34.2738 61.7329 33.4531 61.5997C32.9917 61.5328 32.5339 61.443 32.0816 61.3305C31.9411 61.3014 31.4042 61.1419 30.8815 60.9879C30.4065 60.8491 30.3854 60.8616 29.7841 60.6715C29.1826 60.4814 28.8945 60.3621 28.5741 60.2552C28.1525 60.1166 27.9235 60.0943 27.6706 59.8987C27.5262 59.7807 27.3956 59.6472 27.2813 59.5006C27.1708 59.3461 27.0691 59.1859 26.9764 59.0205C26.6953 58.5598 26.6546 58.5474 26.5871 58.3753C26.5219 58.1963 26.4798 58.0098 26.4621 57.8203C26.4327 57.5837 26.4234 57.3453 26.4339 57.1072C26.4308 56.8914 26.4448 56.6756 26.4761 56.462C26.4999 56.3127 26.5346 56.1652 26.5801 56.0208C26.6357 55.846 26.666 55.6643 26.67 55.4811C26.67 55.3299 26.67 55.155 26.6616 54.9622C26.6571 54.6017 26.6043 54.2434 26.5042 53.8966C26.3841 53.5488 26.2106 53.2212 25.9899 52.9254C25.7313 52.5453 25.6807 52.5689 25.2114 51.9792C24.742 51.3895 24.7181 51.341 24.52 51.0899C24.4836 51.0452 24.4442 51.003 24.402 50.9636C24.2038 50.7929 24.0191 50.6073 23.8497 50.4086C23.6473 50.1727 23.4871 49.9923 23.223 49.6733C22.8014 49.1571 22.8435 49.2654 22.5288 48.7964C22.3869 48.5817 22.2614 48.3567 22.1535 48.1235C22.0131 47.8224 21.9119 47.5685 21.7924 47.2452C21.7151 47.0371 21.6519 46.8623 21.6112 46.7374C21.5702 46.9967 21.5425 47.2579 21.5283 47.5199C21.5114 47.7877 21.5114 47.9015 21.4931 48.2053C21.4734 48.53 21.4693 48.5966 21.4467 48.9879C21.4383 49.1349 21.4159 49.4846 21.4032 49.8661C21.3864 50.3795 21.3695 50.4419 21.3821 51.1634C21.3821 51.7558 21.392 51.6781 21.4032 52.0069C21.4206 52.4213 21.4675 52.8339 21.5437 53.2418C21.5915 53.5751 21.661 53.9051 21.7516 54.2296C21.8421 54.5951 21.984 54.9464 22.1732 55.273C22.3426 55.5339 22.538 55.7774 22.7565 56C23.0155 56.3039 23.2974 56.5882 23.5996 56.8505C23.8806 57.0863 24.2038 57.2778 24.8503 57.6607C25.4657 58.0257 25.654 58.1075 26.0039 58.3878C26.2865 58.5934 26.5109 58.8671 26.6559 59.1828C26.7072 59.3016 26.7445 59.4259 26.767 59.5533C26.6403 59.5336 26.515 59.5062 26.3918 59.4714C25.9309 59.341 25.6653 59.1328 25.3646 58.9774C24.8432 58.7083 25.1622 58.8206 24.3148 58.4488C24.0802 58.3462 23.5349 58.0326 23.015 57.7704C22.6866 57.6163 22.3745 57.4303 22.0833 57.2154C21.3807 56.7437 21.3484 56.684 20.8326 56.3233C20.65 56.1956 20.671 56.2025 19.8181 55.5407C18.7993 54.7499 18.8119 54.7721 18.5674 54.5695C18.039 54.1241 17.6357 53.7371 17.4011 53.4998C17.1298 53.2334 16.9795 53.0766 16.3864 52.4842C16.2108 52.3107 16.0661 52.1693 15.9649 52.068C15.9775 51.6881 15.9681 51.3077 15.9368 50.9289C15.8985 50.7155 15.9033 50.4967 15.9509 50.2851C16.0113 50.0714 16.1167 49.9341 16.3823 49.6261C16.9851 48.9254 16.9977 48.9892 17.1327 48.7756C17.3477 48.4315 17.4137 48.1166 17.4938 47.6906C17.564 47.3385 17.5919 46.9795 17.5767 46.6209C17.54 46.2553 17.4752 45.8931 17.3828 45.5373C17.2998 45.1017 17.1929 44.671 17.0624 44.247C16.8586 43.6573 16.7631 43.6489 16.6324 43.137C16.6099 43.0496 16.5607 42.786 16.4652 42.2588C16.4112 42.0146 16.3741 41.767 16.3541 41.5179C16.3444 41.261 16.358 41.0037 16.3949 40.7492C16.4358 40.403 16.4963 40.0593 16.5762 39.7198C16.4834 39.8363 16.3682 39.9889 16.2432 40.1734C16.1743 40.2719 16.0464 40.4648 15.882 40.7492C15.7176 41.0336 15.6909 41.1128 15.4225 41.6275C15.2904 41.8828 15.3255 41.8078 14.9925 42.4364C14.7002 42.9913 14.6103 43.1634 14.571 43.2328C14.4009 43.5671 14.3124 43.7391 14.2097 43.9737C14.1038 44.1998 14.01 44.4314 13.9287 44.6674C13.8627 44.8686 13.8711 44.8782 13.7208 45.4638C13.6506 45.7085 13.5938 45.9567 13.5507 46.2074C13.5088 46.471 13.5041 46.739 13.5366 47.0038C13.5825 47.2971 13.6661 47.5833 13.7854 47.8557C13.9006 48.1612 14.0352 48.4592 14.1887 48.7478C14.3469 49.0462 14.5234 49.3349 14.7171 49.6122C14.9152 49.898 15.043 50.0437 15.3003 50.435C15.3902 50.5737 15.4618 50.6875 15.5082 50.7651C15.518 51.026 15.5279 51.2868 15.5363 51.5477C15.3958 51.3395 15.133 51.0537 14.8337 50.6764C14.4051 50.1436 14.3321 50.0506 14.0271 49.6399C13.746 49.257 13.7376 49.2585 13.2626 48.5494C13.1306 48.3497 13.1685 48.3899 12.6373 47.5671C12.1286 46.7471 12.1286 46.7471 12.0162 46.5474C11.9037 46.3475 11.8602 46.306 11.4541 45.5762C11.1337 44.999 11.1407 44.9712 10.9116 44.5065C10.6095 43.8974 10.6883 44.0222 10.4255 43.4908C10.1444 42.9095 10.0488 42.7679 9.96595 42.4474C9.90633 42.2207 9.87383 41.9879 9.86897 41.7537C9.86735 41.5321 9.89089 41.3111 9.93925 41.0947C9.97405 40.9315 10.021 40.771 10.0798 40.6147C10.1586 40.3831 10.2708 40.164 10.4128 39.9639C10.5776 39.7568 10.7745 39.5766 10.996 39.4297C11.4077 39.119 11.4977 39.1439 11.7605 38.8942C11.9198 38.7411 12.0612 38.5707 12.182 38.3864C12.3235 38.1786 12.4444 37.958 12.5432 37.7273C12.5619 37.6824 12.5769 37.636 12.5881 37.5886C12.6123 37.4892 12.6232 37.3871 12.6204 37.2848C12.6204 37.1072 12.6204 36.8825 12.6204 36.6257C12.6204 36.3302 12.6387 36.2012 12.6486 35.8432C12.6486 35.7044 12.6486 35.4714 12.6486 35.0108C12.6486 34.2768 12.6486 33.9008 12.6345 33.7065C12.6345 33.5679 12.6261 33.4541 12.6204 33.2265C12.6221 33.0707 12.6329 32.915 12.6528 32.7604C12.6697 32.5575 12.72 32.3588 12.8017 32.1721C12.9078 31.9316 13.0284 31.6976 13.1629 31.4714C13.2486 31.3215 13.3652 31.119 13.5099 30.8817C13.3301 31.0205 13.1558 31.1592 12.9759 31.298C12.8509 31.4145 12.7188 31.5186 12.5937 31.6407C12.5502 31.6823 12.3802 31.846 12.1342 32.093C11.8883 32.3399 11.8869 32.3482 11.6761 32.5605C11.2981 32.9393 11.3107 32.9074 11.1337 33.0947C10.8864 33.3569 10.9103 33.3722 10.5716 33.7399C10.2175 34.138 10.2667 34.1311 10.0924 34.324C9.9407 34.5121 9.80398 34.7116 9.68346 34.9206C9.56508 35.0798 9.46256 35.2498 9.37718 35.4284C9.26588 35.66 9.1788 35.9022 9.11722 36.1513C9.05078 36.3641 8.99815 36.5811 8.95977 36.8005C8.92421 37.0226 8.91482 37.2479 8.93171 37.4721C8.9364 37.7165 8.96463 37.9599 9.01598 38.1991C9.03432 38.2809 9.07364 38.4142 9.15654 38.6805C9.26477 39.0385 9.31953 39.2189 9.37855 39.3659C9.4896 39.6435 9.52892 39.6643 9.58657 39.8599C9.63485 40.03 9.66316 40.2051 9.67084 40.3816C9.67033 40.6229 9.65344 40.8639 9.62026 41.103C9.50103 40.9973 9.40533 40.8684 9.33923 40.7242C9.23594 40.5233 9.16575 40.3074 9.13121 40.0846C9.05538 39.753 9.05956 39.7309 8.92327 39.2286C8.82911 38.8859 8.77153 38.6222 8.74202 38.4877C8.65622 38.095 8.60991 37.8092 8.534 37.3209C8.44548 36.7659 8.46234 36.8005 8.38084 36.2927C8.28106 35.674 8.25858 35.642 8.21362 35.2772C8.19254 35.1009 8.20659 35.1801 8.13071 34.3572C8.08153 33.8259 8.06888 33.7149 8.06044 33.479C8.06044 33.4249 8.06044 33.2223 8.06044 32.8214C8.06044 32.2345 8.06044 32.1734 8.08855 32.0666C8.14055 31.8432 8.24031 31.7003 8.423 31.4214C8.54449 31.2068 8.69904 31.0121 8.88113 30.8442C9.02161 30.725 9.07218 30.7236 9.65958 30.4281C10.0503 30.2338 10.2947 30.1033 10.3538 30.0714C10.6045 29.9458 10.8463 29.8035 11.0775 29.6455C11.3017 29.476 11.5066 29.2829 11.6887 29.0697C11.9558 28.7493 12.1757 28.3935 12.3422 28.0125C12.3731 27.9403 12.4504 27.735 12.605 27.3188C12.723 27.001 12.775 26.8887 12.8425 26.6736C12.9099 26.4585 12.9029 26.4377 12.9676 26.2477C13.026 26.0569 13.1003 25.8713 13.1896 25.6927C13.2107 25.6511 13.3048 25.4943 13.4945 25.1849C13.6195 24.9796 13.6477 24.9352 13.7039 24.8408C13.8655 24.5633 13.8584 24.5494 13.94 24.4245C14.0986 24.1955 14.2704 23.9754 14.4543 23.7655C14.5344 23.6712 14.6468 23.538 14.7873 23.3812C14.4979 23.5352 14.266 23.6698 14.1071 23.7655C13.7854 23.9639 13.718 24.0084 13.4706 24.1471C13.1643 24.3066 13.1558 24.3122 12.8832 24.4523C12.6581 24.5639 12.4428 24.6938 12.2396 24.8408C11.8742 25.0863 11.8757 25.0655 11.6171 25.2418C11.5033 25.3209 11.3361 25.4499 11.0199 25.708C10.7838 25.898 10.6616 25.9966 10.5056 26.1339C10.3819 26.2421 10.2891 26.3295 10.1022 26.5044C9.95852 26.6226 9.82368 26.751 9.69899 26.8887C9.58802 26.9941 9.48388 27.1062 9.38699 27.2244C9.25462 27.403 9.13172 27.5882 9.01879 27.7794C8.91286 27.9466 8.82484 28.1242 8.75601 28.3094C8.68838 28.5831 8.64138 28.8613 8.61554 29.1419C8.58458 29.3464 8.56581 29.5526 8.55933 29.7593C8.58074 29.9323 8.58543 30.1071 8.57332 30.2809C8.5659 30.3967 8.54748 30.5113 8.51855 30.6237C8.45476 30.8555 8.34064 31.0709 8.18411 31.2549C8.12277 31.0346 8.08092 30.8095 8.05904 30.5821C8.03939 30.2806 8.04409 29.9781 8.07309 29.6774C8.09417 29.3556 8.11946 29.1113 8.17005 28.6202C8.21924 28.1554 8.25437 27.8627 8.26842 27.7558C8.28518 27.5163 8.31756 27.2781 8.36538 27.0426C8.39084 26.8548 8.43124 26.6692 8.48623 26.4877C8.52694 26.3415 8.59405 26.2038 8.68437 26.0812C8.80105 25.936 8.93666 25.8068 9.08771 25.6969C9.46009 25.3944 9.32797 25.4721 9.72705 25.1419C10.3538 24.6327 10.3088 24.7409 10.4915 24.5522C10.7804 24.2495 10.9902 23.8819 11.1028 23.4811C11.1504 23.2919 11.1833 23.0995 11.2011 22.9053C11.225 22.7 11.2306 22.5543 11.2419 22.1922C11.2616 21.5692 11.27 21.2585 11.27 20.9157C11.27 20.6313 11.27 20.4426 11.256 20.1748C11.2405 19.8516 11.2278 19.8432 11.2011 19.434C11.1576 18.7763 11.1871 18.7402 11.1309 18.4461C11.1112 18.3392 11.0648 18.1242 10.9904 17.8689C10.9594 17.7565 10.9299 17.6622 10.9075 17.5914C10.8864 17.6719 10.8723 17.7301 10.8639 17.7815C10.8456 17.8925 10.8344 17.9341 10.8203 18.0174Z" fill="#353535"/>
<path d="M66.1895 45.9813C66.2148 45.8758 66.2177 45.8813 66.2443 45.7412C66.2732 45.5874 66.3174 45.4369 66.3764 45.2917C66.4124 45.1789 66.464 45.0715 66.5296 44.9726C66.6406 44.7936 66.6968 44.7048 66.7516 44.6299C66.8682 44.4703 66.9076 44.4467 67.072 44.2455C67.1774 44.1151 67.2476 44.018 67.3222 43.9154C67.3966 43.8127 67.4472 43.7378 67.7437 43.2979L67.9517 42.983C68.0922 42.7541 68.1021 42.7055 68.2987 42.3517C68.4224 42.1297 68.4239 42.0742 68.5447 41.8536C68.6528 41.5346 68.724 41.2047 68.7569 40.8699C68.7569 40.6937 68.7569 40.6215 68.7709 40.3621C68.7808 40.0208 68.785 39.8502 68.785 39.7988C68.785 39.4825 68.7709 39.4061 68.7442 38.6194C68.7369 38.464 68.7411 38.3082 68.7569 38.1533C68.7709 38.0326 68.7878 37.9396 68.8131 37.8092C68.8594 37.565 68.8791 37.54 68.9241 37.3153C68.9747 37.0642 68.9916 37.0378 69.0351 36.8353C69.0787 36.6327 69.0899 36.5577 69.1068 36.4482C69.1374 36.2973 69.1594 36.1449 69.1728 35.9916C69.1911 35.8168 69.2178 35.6864 69.2304 35.477C69.2641 35.1037 69.2993 34.9303 69.3064 34.6597C69.3203 34.163 69.319 34.3517 69.3134 33.9396C69.3134 33.6053 69.3232 33.6122 69.3372 33.1959C69.3457 32.9656 69.3372 32.523 69.3372 32.3899C69.3457 31.9029 69.3611 30.9608 69.3794 29.7412C69.4342 29.8009 69.5199 29.8924 69.6295 30.0021C69.7378 30.0962 69.8353 30.2018 69.9205 30.317C69.9894 30.4262 70.037 30.5471 70.0609 30.6736C70.1073 30.8872 70.0694 30.9788 70.0468 31.3326C70.0292 31.552 70.0292 31.7724 70.0468 31.9916C70.0809 32.3895 70.1945 32.7767 70.3814 33.1308C70.4698 33.3074 70.5718 33.4771 70.6863 33.6386C70.8343 33.8581 71.0068 34.0605 71.2006 34.2421C71.3875 34.4219 71.5923 34.5827 71.8119 34.7222C72.1744 34.9761 72.2615 34.9996 72.5904 35.2647C72.7605 35.4007 72.942 35.5223 73.1328 35.6281C73.4686 35.8266 73.5543 35.8695 73.8129 36.0263C74.1474 36.2234 74.2865 36.3122 74.4256 36.3968C74.8333 36.6381 75.2611 36.8447 75.7043 37.0142C75.6613 36.9562 75.6144 36.901 75.5639 36.8491C75.4757 36.7535 75.3819 36.6631 75.2828 36.5785C75.1036 36.397 74.9436 36.1981 74.805 35.9847C74.74 35.8745 74.6826 35.76 74.6336 35.642C74.5351 35.4442 74.456 35.2374 74.3975 35.0246C74.257 34.6389 74.2851 34.6625 74.1895 34.4072C74.115 34.2074 74.0898 34.1699 73.768 33.4734C73.5726 33.0461 73.5853 33.0669 73.5178 32.9185C73.3957 32.6337 73.2515 32.3586 73.0864 32.0957C72.8825 31.8242 72.6392 31.5839 72.3641 31.3826C72.1876 31.2261 71.9916 31.0923 71.781 30.9844C71.5336 30.8664 71.3945 30.8553 70.9181 30.6819C70.7495 30.6209 70.6132 30.5654 70.5289 30.5307C70.3882 30.4291 70.2579 30.3144 70.1396 30.1879C70.009 30.0493 69.95 29.9522 69.7925 29.7495C69.7054 29.6372 69.5748 29.4721 69.4033 29.282C69.3637 29.074 69.3393 28.8635 69.3302 28.6521C69.3175 28.3996 69.312 28.3399 69.2838 28.0749C69.2431 27.7073 69.2374 27.6864 69.1995 27.366C69.1433 26.8789 69.1461 26.9067 69.0843 26.5515C69.0281 26.2352 68.9747 25.9965 68.9171 25.7703C68.8468 25.4929 68.8384 25.479 68.7639 25.1794C68.6585 24.7533 68.6346 24.6813 68.5138 24.1915C68.4407 23.889 68.3845 23.6642 68.2917 23.3687C68.1512 22.9067 68.1077 22.9067 67.9306 22.3531C67.8589 22.1311 67.8139 21.9674 67.7226 21.6399C67.6931 21.5373 67.6608 21.4166 67.6243 21.2557C67.606 21.1696 67.5919 21.0989 67.5835 21.0489C67.7124 21.0561 67.8391 21.0842 67.9587 21.1321C68.1003 21.2026 68.2352 21.2852 68.362 21.3791C68.6079 21.5345 68.6262 21.5179 68.7639 21.6122C68.916 21.7263 69.0517 21.8602 69.1672 22.0104C69.4763 22.3698 69.4834 22.4266 69.7096 22.6819C69.8839 22.882 70.0717 23.0702 70.2718 23.2452C70.4508 23.4049 70.64 23.5532 70.838 23.6892C71.1008 23.8682 71.2259 23.9736 71.4002 24.0194C71.664 24.0814 71.9341 24.1136 72.2053 24.1151C72.9936 24.1637 72.8293 24.1665 73.2199 24.1693C73.6105 24.1869 74.0019 24.1641 74.3876 24.1013C74.649 24.0527 74.6336 24.0402 75.11 23.9195C75.2659 23.8807 75.2884 23.8502 75.7353 23.7447C76.2609 23.6199 76.3902 23.5852 76.4998 23.5518C76.7133 23.4894 76.8862 23.4297 77 23.3881C76.8269 23.3282 76.6505 23.2777 76.4716 23.2369C76.1485 23.162 76.1063 23.1661 75.8744 23.0982C75.68 23.0402 75.4916 22.9635 75.3124 22.8692C75.1427 22.7709 74.9802 22.661 74.8261 22.5404C74.4228 22.2421 74.4045 22.1977 74.1235 21.9854C73.9464 21.8564 73.9829 21.8939 73.4434 21.5331C72.9908 21.2306 72.9487 21.1932 72.7618 21.0794C72.5431 20.9331 72.3101 20.809 72.0662 20.709C71.8781 20.6374 71.6825 20.5867 71.4831 20.5577C71.2615 20.5298 71.0372 20.5298 70.8156 20.5577C70.6094 20.5668 70.4069 20.6139 70.2183 20.6965C70.1692 20.7201 70.1523 20.7325 69.815 20.9435L69.5508 21.1085C69.4 21.1383 69.2465 21.1522 69.0927 21.1502C68.9386 21.1458 68.7852 21.1271 68.6346 21.0946C68.4532 21.0646 68.2759 21.0139 68.1062 20.9435C67.8771 20.8451 67.6695 20.7038 67.495 20.5272C67.3938 20.423 67.3051 20.3075 67.2308 20.1831C67.1229 19.9813 67.0345 19.77 66.9666 19.5518C66.8754 19.3544 66.7731 19.1622 66.6603 18.9761C66.4804 18.6445 66.5 18.6445 66.1881 18.0159C66.035 17.7065 65.8888 17.4124 65.6878 17.0447C65.619 16.9157 65.4743 16.6507 65.2846 16.3302C65.0034 15.8626 64.9248 15.7752 64.3402 14.8762C64.1526 14.5722 63.9412 14.2832 63.7079 14.0118C63.4647 13.7024 63.4367 13.6482 63.0333 13.1794C62.5977 12.6687 62.6357 12.6854 62.3378 12.3274C62.089 12.0278 61.8122 11.7725 61.4946 11.4492C61.3541 11.3104 61.2431 11.1994 61.1615 11.1203C61.3424 11.0578 61.5375 11.0482 61.7237 11.0926C61.8937 11.1384 61.9878 11.2189 62.238 11.4089C62.4487 11.5685 62.6666 11.7155 62.8773 11.8751C63.2989 12.1901 63.5041 12.3482 63.6559 12.4509C63.9771 12.6941 64.3332 12.8886 64.7126 13.0281C65.0948 13.1544 65.3914 13.1668 65.9773 13.1794C66.367 13.1957 66.7574 13.1771 67.1436 13.1238C67.5312 13.0652 67.9126 12.9723 68.2833 12.8463C68.5461 12.7603 68.4491 12.7756 69.423 12.3663C69.957 12.1429 70.2591 12.0236 70.7438 11.7905L71.0769 11.6254C70.7962 11.6441 70.5145 11.6441 70.2338 11.6254C69.9576 11.6122 69.683 11.5756 69.4131 11.5158C69.1771 11.4579 68.9452 11.3848 68.719 11.2966C68.5489 11.2341 68.4885 11.2064 68.0163 11.008C67.4388 10.7693 67.5049 10.7998 67.2519 10.6916C66.6055 10.4141 66.6617 10.4225 66.3891 10.3212C66.1025 10.2105 65.8103 10.1146 65.5136 10.034C65.3375 9.97431 65.1583 9.92387 64.9768 9.88277C64.7468 9.82854 64.509 9.81448 64.2741 9.84117C63.802 9.86753 63.5715 9.88 63.3425 9.96463C63.1396 10.0269 62.9543 10.1352 62.8015 10.2809C62.6995 10.3996 62.5876 10.5096 62.467 10.6098C62.3554 10.6985 62.2168 10.7474 62.0736 10.7485L60.9803 10.761C60.8861 10.6819 60.7456 10.564 60.577 10.4183C60.1399 10.0381 59.8814 9.78425 59.5217 9.44707C58.7783 8.74231 58.4059 8.38987 58.0476 8.11654C57.8129 7.93617 57.907 8.02358 57.1861 7.51301C56.3598 6.92612 56.2952 6.85258 55.8666 6.56538C55.4929 6.31702 55.2104 6.14915 54.6427 5.82449C54.3237 5.63996 53.8333 5.35692 53.17 5.01561C52.5657 4.70482 52.2636 4.54804 51.9882 4.43982C51.8251 4.37461 51.5666 4.28026 51.2237 4.10961C51.0144 4.00694 50.8471 3.91259 50.7375 3.84876L50.8837 3.7239C51.2033 3.70115 51.5243 3.71045 51.842 3.75164C52.011 3.77111 52.1782 3.80311 52.3423 3.84738C52.5598 3.91815 52.7733 4.00059 52.9817 4.09435C53.0716 4.12903 53.2978 4.19563 53.7461 4.32743C54.1578 4.44953 54.3658 4.51057 54.4684 4.53416C54.734 4.59431 55.0035 4.63558 55.275 4.65765C55.5714 4.67633 55.8689 4.67169 56.1645 4.64377C56.5214 4.6325 56.8759 4.58177 57.2213 4.49254C57.4552 4.42495 57.6827 4.33768 57.9014 4.2317C58.1993 4.09296 58.323 4.00555 58.6378 3.83351C59.2322 3.51162 59.2476 3.53798 59.7085 3.27159C60.1034 3.03919 60.4831 2.78247 60.8454 2.50295C61.2177 2.22546 61.1517 2.24349 61.7349 1.7898C62.2015 1.42629 62.2731 1.3916 62.6244 1.10301C62.9252 0.85605 62.9856 0.789455 63.2779 0.554977C63.5701 0.320499 63.8316 0.126258 64.0002 0C63.5378 0.174818 63.1767 0.330211 62.9308 0.438432C62.7403 0.514401 62.5432 0.57292 62.342 0.61325C62.0915 0.694199 61.831 0.740881 61.5677 0.751994C61.0969 0.767256 60.8651 0.751994 60.3732 0.73812H59.2617C58.2865 0.73812 58.2513 0.73812 57.9829 0.73812C57.7145 0.73812 57.789 0.73812 56.9262 0.710371C56.7856 0.710371 56.3093 0.696497 55.7036 0.710371C55.4743 0.701042 55.2447 0.724406 55.0221 0.779743C54.7826 0.865448 54.5539 0.978113 54.3405 1.1155C54.1402 1.21693 53.9497 1.33629 53.7715 1.47208C53.5747 1.6358 53.555 1.70517 53.267 1.98266C52.9788 2.26014 53.0758 2.15747 52.889 2.35726C52.6332 2.63475 52.5995 2.72494 52.3957 2.88589C52.2141 3.00634 52.0176 3.10332 51.8111 3.17447C51.6263 3.25559 51.4362 3.3242 51.242 3.37981C51.0243 3.4432 50.8007 3.48457 50.5745 3.50329C50.2808 3.5216 49.9862 3.49871 49.699 3.43531C49.1538 3.31738 49.033 3.22858 48.3191 2.95942C48.2306 2.92612 47.972 2.84703 47.4661 2.70274C46.9602 2.55845 46.5653 2.4419 46.4473 2.40999C45.9907 2.28651 45.77 2.18939 45.5311 2.1325C45.0576 2.01734 44.8285 1.98127 44.4603 1.9119C44.0149 1.82727 43.6017 1.75095 43.0424 1.6788C42.701 1.63441 42.3651 1.5914 41.9309 1.56781C41.4011 1.54145 41.0638 1.52758 40.5257 1.53174C40.0661 1.53174 39.4591 1.55949 38.6764 1.60943L38.7185 2.08949C39.2398 2.0992 39.6024 2.04093 39.9144 2.04925C40.6676 2.06868 40.9332 2.077 41.0526 2.07561C41.4373 2.09126 41.8211 2.12646 42.2021 2.18106C42.6967 2.24488 42.7347 2.26847 43.5553 2.40028C44.532 2.55844 44.4336 2.55983 44.9268 2.66667C45.0674 2.69581 45.6027 2.85536 46.1255 3.00936C46.6005 3.14811 46.6215 3.13562 47.2244 3.32431C47.8273 3.51301 48.1125 3.63372 48.4329 3.74055C48.8545 3.87929 49.0835 3.90149 49.3365 4.09712C49.4813 4.2147 49.6118 4.34831 49.7258 4.49532C49.84 4.64823 49.9451 4.8076 50.0405 4.9726C50.3215 5.43323 50.3623 5.44572 50.4283 5.61776C50.4942 5.7966 50.5363 5.98316 50.5534 6.17274C50.5835 6.40922 50.5928 6.64781 50.5815 6.88588C50.5843 7.10164 50.5708 7.3173 50.5408 7.53104C50.5162 7.68025 50.4815 7.82765 50.4368 7.97225C50.3799 8.14679 50.3491 8.32862 50.3454 8.512C50.3454 8.66315 50.3454 8.83798 50.3553 9.0309C50.3591 9.39141 50.4119 9.74981 50.5127 10.0964C50.6317 10.4447 50.8052 10.7724 51.027 11.0676C51.2841 11.4492 51.3362 11.4256 51.8055 12.0152C52.2749 12.6049 52.2973 12.6535 52.4955 12.9032C52.5315 12.9486 52.5709 12.9913 52.6135 13.0309C52.8118 13.2019 52.9969 13.3874 53.1672 13.5858C53.3681 13.8203 53.5283 14.0021 53.7925 14.3198C54.2141 14.836 54.1719 14.7291 54.4867 15.1981C54.6286 15.4128 54.754 15.6377 54.8619 15.871C55.0024 16.172 55.105 16.4259 55.2245 16.7492C55.3017 16.9573 55.3649 17.1321 55.4043 17.257C55.446 16.9978 55.4737 16.7366 55.4872 16.4745C55.504 16.2067 55.504 16.093 55.5224 15.7891C55.5406 15.4852 55.5463 15.3978 55.5701 15.0066C55.5786 14.8595 55.601 14.5099 55.6123 14.1283C55.6292 13.615 55.646 13.5526 55.6333 12.8311C55.6333 12.2386 55.6249 12.3164 55.6123 11.9875C55.5941 11.5732 55.5472 11.1607 55.4717 10.7527C55.4236 10.4193 55.3537 10.0893 55.2624 9.7648C55.1723 9.39915 55.0303 9.04791 54.8408 8.72143C54.6711 8.45953 54.4753 8.21506 54.2562 7.99168C53.9972 7.68769 53.7153 7.40338 53.4131 7.14117C53.132 6.9053 52.8074 6.71383 52.1624 6.3309C51.5455 5.966 51.3587 5.88415 51.0087 5.60388C50.7253 5.39873 50.5003 5.12492 50.3553 4.80887C50.3046 4.68977 50.2675 4.56555 50.2443 4.43843C50.3711 4.45732 50.4964 4.48466 50.6194 4.52029C51.0818 4.65071 51.346 4.85883 51.6481 5.01422C52.1694 5.28199 51.8491 5.171 52.6964 5.54284C52.9324 5.6455 53.4763 5.966 53.9963 6.22129C54.325 6.3748 54.6371 6.56075 54.9279 6.77627C55.6305 7.248 55.6629 7.30766 56.1786 7.6684C56.3613 7.79604 56.3402 7.78911 57.1931 8.44951C58.2134 9.24177 58.1993 9.21819 58.4438 9.42071C58.9736 9.8661 59.3755 10.2532 59.6116 10.4904C59.8828 10.7569 60.0331 10.9067 60.6262 11.5061L61.0478 11.9223C61.0358 12.3017 61.0452 12.6816 61.0758 13.06C61.1141 13.2738 61.1093 13.4931 61.0618 13.7052C61.0014 13.9188 60.8974 14.0562 60.6318 14.3642C60.029 15.0579 60.0149 15.001 59.8814 15.2147C59.665 15.5574 59.6004 15.8738 59.5202 16.2997C59.4491 16.6517 59.4208 17.0108 59.4359 17.3694C59.4733 17.7349 59.5386 18.0972 59.6313 18.453C59.7147 18.8883 59.8211 19.319 59.9502 19.7433C60.154 20.333 60.2495 20.3413 60.3816 20.8533C60.4042 20.9407 60.4519 21.2043 60.5474 21.7315C60.601 21.9758 60.6385 22.2233 60.6599 22.4724C60.6692 22.7293 60.655 22.9866 60.6177 23.2411C60.5776 23.5874 60.517 23.9311 60.4365 24.2706C60.5292 24.1526 60.6444 24.0013 60.7709 23.8168C60.8384 23.7183 60.9677 23.5255 61.132 23.2411C61.2965 22.9566 61.3232 22.8775 61.5901 22.3628C61.7237 22.1075 61.6871 22.1825 62.0216 21.5526C62.3125 20.9975 62.4024 20.8269 62.4431 20.7575C62.6145 20.4231 62.7017 20.2511 62.8057 20.0167C62.9124 19.7907 63.0062 19.5591 63.0867 19.3229C63.1528 19.1231 63.1444 19.1134 63.2961 18.5279C63.3687 18.2887 63.4287 18.0461 63.476 17.8009C63.5179 17.5373 63.5226 17.2693 63.4901 17.0045C63.4443 16.7115 63.3602 16.4256 63.2399 16.154C63.1254 15.8482 62.9906 15.5502 62.8366 15.2619C62.679 14.9634 62.5031 14.6747 62.3096 14.3975C62.1101 14.1117 61.9822 13.966 61.7251 13.5734C61.6352 13.4346 61.5649 13.3223 61.5171 13.2445C61.5072 12.9837 61.4989 12.7229 61.489 12.462C61.6295 12.6701 61.8937 12.956 62.1916 13.3333C62.6216 13.8661 62.6947 13.9591 62.9982 14.3698C63.2793 14.7527 63.2877 14.7513 63.7626 15.4603C63.8961 15.6587 63.8568 15.6199 64.388 16.4412C64.8967 17.2626 64.8967 17.2626 65.0091 17.4624C65.1215 17.6621 65.1651 17.7037 65.5712 18.4336C65.8916 19.0108 65.8831 19.0385 66.1122 19.5033C66.4143 20.1124 66.3371 19.9875 66.5998 20.5189C66.8809 21.0989 66.975 21.2418 67.0579 21.5608C67.1175 21.7876 67.15 22.0205 67.1549 22.2546C67.1569 22.4761 67.1338 22.6972 67.0861 22.9136C67.0508 23.0767 67.0038 23.2371 66.9455 23.3937C66.8658 23.6231 66.7536 23.8403 66.6125 24.0388C66.4467 24.2456 66.2495 24.4258 66.0279 24.573C65.6175 24.8838 65.5262 24.8589 65.2634 25.1085C65.1042 25.2617 64.9628 25.4321 64.8419 25.6163C64.701 25.8245 64.5801 26.0451 64.4807 26.2754C64.4628 26.3207 64.4478 26.367 64.4358 26.4141C64.4115 26.514 64.401 26.6167 64.4049 26.7194C64.4049 26.897 64.4049 27.1203 64.3978 27.3784C64.3978 27.6739 64.3795 27.7947 64.3697 28.1609C64.3697 28.2997 64.3697 28.5328 64.3697 28.9934C64.3697 29.726 64.3697 30.1033 64.3838 30.2962C64.3838 30.4349 64.3922 30.5501 64.3978 30.7777C64.397 30.9335 64.3863 31.0892 64.3655 31.2439C64.3495 31.4472 64.2991 31.6465 64.2166 31.8335C64.1111 32.0743 63.9905 32.3083 63.8554 32.5341C63.7711 32.684 63.653 32.8866 63.5083 33.1238C63.6895 32.9851 63.8624 32.8463 64.0437 32.7076C64.1673 32.5911 64.2995 32.487 64.4259 32.3649C64.4695 32.3218 64.6382 32.1596 64.884 31.9126C65.1299 31.6656 65.1328 31.6572 65.3436 31.445C65.7201 31.0663 65.7075 31.0982 65.8846 30.9108C66.1319 30.6486 66.1094 30.6333 66.4467 30.2657C66.8008 29.8675 66.753 29.8744 66.9258 29.6816C66.9919 29.6094 67.013 29.5831 67.3362 29.085C67.4545 28.926 67.5566 28.7559 67.6411 28.5772C67.749 28.3447 67.8315 28.1014 67.887 27.8515C67.9548 27.639 68.0075 27.4221 68.0444 27.2022C68.08 26.9802 68.0894 26.7549 68.0725 26.5307C68.0684 26.2858 68.0406 26.0419 67.9896 25.8023C67.9714 25.7218 67.9306 25.5886 67.8491 25.3223C67.7395 24.9643 67.6846 24.7839 67.6256 24.6368C67.516 24.3593 67.4767 24.3385 67.4177 24.1429C67.3704 23.9726 67.3426 23.7976 67.3348 23.6212C67.3341 23.3794 67.3505 23.1378 67.384 22.8983C67.5033 23.0045 67.599 23.134 67.665 23.2786C67.769 23.4792 67.8392 23.6952 67.873 23.9181C67.9489 24.2498 67.9447 24.2719 68.0824 24.7742C68.1751 25.1169 68.2342 25.3805 68.2622 25.5151C68.3479 25.9077 68.3943 26.1935 68.4716 26.6805C68.5587 27.2355 68.5419 27.2022 68.6234 27.7101C68.7231 28.3274 68.7457 28.3607 68.7906 28.7256C68.8131 28.9018 68.799 28.8227 68.8735 29.6455C68.9227 30.1755 68.9353 30.2879 68.9438 30.5238C68.9438 30.5778 68.9438 30.7804 68.9438 31.1814C68.9438 31.7683 68.9438 31.8293 68.9156 31.9362C68.8637 32.1596 68.7639 32.3025 68.5827 32.5813C68.4611 32.7964 68.3061 32.9911 68.1231 33.1585C67.9826 33.2778 67.932 33.2792 67.346 33.5747C66.954 33.769 66.7094 33.8994 66.6504 33.9313C66.3997 34.0561 66.1583 34.1984 65.9282 34.3573C65.7033 34.5261 65.4982 34.7191 65.3169 34.933C65.0493 35.253 64.8293 35.609 64.6634 35.9903C64.6311 36.0624 64.5538 36.2678 64.3993 36.684C64.2812 37.0018 64.2292 37.1141 64.1632 37.3292C64.0971 37.5442 64.1013 37.5636 64.038 37.7551C63.9778 37.9431 63.9031 38.1263 63.8147 38.3031C63.795 38.3447 63.6994 38.5002 63.5098 38.8109C63.3846 39.0163 63.3566 39.0607 63.3017 39.1537C63.1387 39.4311 63.1457 39.4464 63.0643 39.5699C62.9057 39.7991 62.734 40.0191 62.55 40.229C62.4713 40.3233 62.3574 40.4565 62.2169 40.6132C62.5064 40.4593 62.7382 40.3246 62.8985 40.229C63.2147 40.0388 63.2863 39.9916 63.5336 39.8612L64.121 39.556C64.3459 39.4426 64.5606 39.3108 64.7632 39.162C65.1286 38.9164 65.1271 38.9372 65.3857 38.761C65.501 38.6819 65.6668 38.5529 65.9829 38.2935C66.2205 38.1047 66.3412 38.0062 66.4972 37.8689C66.6209 37.7607 66.7137 37.6732 66.9006 37.4984C67.0443 37.3802 67.179 37.2517 67.3038 37.1141C67.4176 37.0082 67.5233 36.894 67.6201 36.7728C67.7536 36.5948 67.8771 36.4095 67.9896 36.2178C68.0947 36.053 68.1827 35.8783 68.2524 35.6962C68.3207 35.4226 68.3677 35.1443 68.3929 34.8636C68.4239 34.6591 68.4426 34.453 68.4491 34.2462C68.4277 34.0732 68.423 33.8985 68.4351 33.7246C68.4432 33.6089 68.4621 33.4942 68.4913 33.3819C68.5544 33.15 68.668 32.9346 68.8243 32.7506C68.8862 32.9703 68.9281 33.195 68.9494 33.4221C68.969 33.724 68.9643 34.0269 68.9353 34.3282C68.9143 34.65 68.889 34.8942 68.8384 35.3853C68.7892 35.8502 68.7541 36.1429 68.7414 36.2497C68.7245 36.4893 68.6917 36.7276 68.6431 36.9628C68.618 37.1506 68.578 37.3362 68.5237 37.5179C68.4812 37.6636 68.4137 37.8012 68.3241 37.9244C68.2077 38.0698 68.0721 38.1991 67.9207 38.3087C67.5483 38.6112 67.6805 38.5335 67.2814 38.8636C66.6547 39.3729 66.6996 39.2647 66.5169 39.4534C66.2286 39.7564 66.0187 40.1239 65.9056 40.5244C65.8579 40.7135 65.8255 40.9061 65.8087 41.1002C65.7848 41.3056 65.7778 41.4513 65.7665 41.8134C65.7483 42.4364 65.7384 42.7471 65.7384 43.0898C65.7384 43.3742 65.7384 43.5629 65.7525 43.8307C65.7679 44.154 65.782 44.1623 65.8087 44.5716C65.8523 45.2293 65.8228 45.2653 65.8775 45.5595C65.8987 45.6649 65.945 45.8813 66.0181 46.1367C66.0504 46.249 66.0799 46.342 66.101 46.4141C66.122 46.3351 66.1361 46.2753 66.1459 46.2254C66.1643 46.1061 66.1684 46.0687 66.1895 45.9813Z" fill="#353535"/>
<path d="M21.7924 20.3165L47.8006 20.3109V22.2505H35.7183L35.7211 27.9418H55.2511V29.8829H43.3094V52.3539H41.2001L41.2044 29.8829H35.7211V44.7313H33.751L33.7524 29.8842L29.2556 29.8856L29.257 27.9432L33.751 27.9418V22.2505L21.7924 22.2602V20.3165Z" fill="#353535"/>
<path d="M48.3134 52.1984C49.9122 52.1984 51.2083 50.9188 51.2083 49.3402C51.2083 47.7618 49.9122 46.4821 48.3134 46.4821C46.7147 46.4821 45.4187 47.7618 45.4187 49.3402C45.4187 50.9188 46.7147 52.1984 48.3134 52.1984Z" fill="#353535"/>
<path d="M47.6036 49.1601H47.6924C47.7017 49.2552 47.7203 49.3346 47.7483 49.398C47.7762 49.4615 47.8104 49.512 47.851 49.5496C47.8924 49.5871 47.9393 49.6138 47.9918 49.6297C48.0451 49.6447 48.1013 49.6522 48.1605 49.6522C48.2315 49.6522 48.292 49.6435 48.3419 49.6259C48.3926 49.6084 48.434 49.5842 48.4662 49.5534C48.4992 49.5216 48.5228 49.484 48.5372 49.4406C48.5524 49.3964 48.5601 49.348 48.5601 49.2953C48.5601 49.2302 48.5491 49.1768 48.5271 49.135C48.5051 49.0925 48.4742 49.0565 48.4344 49.0273C48.3956 48.9972 48.3486 48.9714 48.2936 48.9496C48.2387 48.928 48.1782 48.9054 48.1123 48.882C48.0463 48.8587 47.9833 48.834 47.9233 48.8082C47.8641 48.7822 47.8116 48.7502 47.766 48.7118C47.7203 48.6734 47.684 48.6265 47.6569 48.5715C47.6307 48.5155 47.6176 48.4462 47.6176 48.3635C47.6176 48.2859 47.6302 48.2149 47.6557 48.1507C47.681 48.0864 47.7187 48.0317 47.7686 47.9866C47.8184 47.9406 47.8801 47.9052 47.9537 47.8802C48.0281 47.8551 48.1144 47.8426 48.2125 47.8426C48.2514 47.8426 48.2916 47.8446 48.333 47.8489C48.3744 47.8522 48.4154 47.8576 48.456 47.8651C48.4975 47.8726 48.5381 47.8819 48.5778 47.8926C48.6176 47.9027 48.6552 47.9139 48.6907 47.9265L48.7059 48.3811H48.6171C48.6096 48.291 48.5926 48.2174 48.5664 48.1607C48.5402 48.1039 48.5081 48.0596 48.47 48.028C48.4327 47.9954 48.3909 47.9732 48.3444 47.9615C48.2988 47.9491 48.2518 47.9427 48.2036 47.9427C48.1393 47.9427 48.0836 47.9507 48.0361 47.9666C47.9888 47.9816 47.9495 48.0037 47.9182 48.0329C47.887 48.0613 47.8633 48.0964 47.8472 48.1381C47.8319 48.179 47.8244 48.2254 47.8244 48.2771C47.8244 48.339 47.8354 48.3903 47.8574 48.4312C47.8793 48.4721 47.9102 48.5076 47.9499 48.5376C47.9905 48.5668 48.0387 48.5932 48.0946 48.6165C48.1512 48.6391 48.2134 48.6629 48.281 48.6879C48.3428 48.7113 48.4031 48.7363 48.4623 48.763C48.5224 48.789 48.5757 48.8219 48.6222 48.862C48.6696 48.9012 48.7076 48.9501 48.7364 49.0085C48.7651 49.0661 48.7794 49.1379 48.7794 49.2239C48.7794 49.3075 48.7647 49.3817 48.7351 49.4468C48.7064 49.512 48.6645 49.5667 48.6096 49.611C48.5554 49.6552 48.489 49.689 48.4104 49.7123C48.3318 49.7358 48.243 49.7475 48.144 49.7475C48.1009 49.7475 48.056 49.7453 48.0095 49.7411C47.9639 49.737 47.9182 49.7307 47.8725 49.7224C47.8278 49.714 47.7838 49.7044 47.7406 49.6936C47.6975 49.6827 47.6574 49.6702 47.6201 49.656L47.6036 49.1601Z" fill="#353535"/>
</svg>
