<svg width="220" height="48" viewBox="0 0 220 48" fill="none" xmlns="http://www.w3.org/2000/svg">
<path d="M10.5527 25.1655C11.4359 25.1655 12.1518 24.4613 12.1518 23.5927C12.1518 22.724 11.4359 22.0198 10.5527 22.0198C9.66947 22.0198 8.9535 22.724 8.9535 23.5927C8.9535 24.4613 9.66947 25.1655 10.5527 25.1655Z" fill="#353535"/>
<path d="M22.0667 34.288C22.9499 34.288 23.6658 33.5838 23.6658 32.7152C23.6658 31.8465 22.9499 31.1423 22.0667 31.1423C21.1835 31.1423 20.4675 31.8465 20.4675 32.7152C20.4675 33.5838 21.1835 34.288 22.0667 34.288Z" fill="#353535"/>
<path d="M24.3055 11.639C25.1887 11.639 25.9047 10.9349 25.9047 10.0662C25.9047 9.19755 25.1887 8.49336 24.3055 8.49336C23.4223 8.49336 22.7063 9.19755 22.7063 10.0662C22.7063 10.9349 23.4223 11.639 24.3055 11.639Z" fill="#353535"/>
<path d="M38.0584 20.7615C38.9416 20.7615 39.6575 20.0574 39.6575 19.1887C39.6575 18.32 38.9416 17.6159 38.0584 17.6159C37.1752 17.6159 36.4592 18.32 36.4592 19.1887C36.4592 20.0574 37.1752 20.7615 38.0584 20.7615Z" fill="#353535"/>
<path d="M48.293 0V47.1853H32.3014V42.385L39.6575 34.9171V22.6206C40.9784 22.023 41.8964 20.7112 41.8964 19.1887C41.8964 17.1063 40.1757 15.4139 38.0584 15.4139C35.9379 15.4139 34.2204 17.1063 34.2204 19.1887C34.2204 20.7112 35.1383 22.023 36.4592 22.6206V33.8476L32.3014 37.9339L32.3077 28.61L25.9047 22.3124V13.4981C27.2256 12.9005 28.1435 11.5887 28.1435 10.0662C28.1435 7.98376 26.4228 6.29138 24.3055 6.29138C22.185 6.29138 20.4675 7.98376 20.4675 10.0662C20.4675 11.5887 21.3854 12.9005 22.7063 13.4981V23.6147L29.103 29.9092V47.1853H23.6658V36.1471C24.9868 35.5494 25.9047 34.2377 25.9047 32.7152C25.9047 30.6327 24.184 28.9403 22.0667 28.9403C19.9462 28.9403 18.2287 30.6327 18.2287 32.7152C18.2287 34.2377 19.1466 35.5494 20.4675 36.1471V47.1853H15.9898L16.0058 35.8577C16.0058 35.8577 12.2758 32.1859 12.1518 32.064C12.0279 31.9421 12.1518 27.0246 12.1518 27.0246C13.4727 26.4269 14.3907 25.1152 14.3907 23.5927C14.3907 21.5102 12.67 19.8178 10.5527 19.8178C8.43217 19.8178 6.71467 21.5102 6.71467 23.5927C6.71467 25.1152 7.63259 26.4269 8.9535 27.0246V33.3254L12.7915 37.1443V47.1853H0.317993V0H48.293Z" fill="#353535"/>
<path d="M10.5527 25.1655C11.4359 25.1655 12.1518 24.4613 12.1518 23.5927C12.1518 22.724 11.4359 22.0198 10.5527 22.0198C9.66947 22.0198 8.9535 22.724 8.9535 23.5927C8.9535 24.4613 9.66947 25.1655 10.5527 25.1655Z" fill="#353535"/>
<path d="M10.5527 25.1655C11.4359 25.1655 12.1518 24.4613 12.1518 23.5927C12.1518 22.724 11.4359 22.0198 10.5527 22.0198C9.66947 22.0198 8.9535 22.724 8.9535 23.5927C8.9535 24.4613 9.66947 25.1655 10.5527 25.1655Z" fill="#353535"/>
<path d="M22.0667 34.288C22.9499 34.288 23.6658 33.5838 23.6658 32.7152C23.6658 31.8465 22.9499 31.1423 22.0667 31.1423C21.1835 31.1423 20.4675 31.8465 20.4675 32.7152C20.4675 33.5838 21.1835 34.288 22.0667 34.288Z" fill="#353535"/>
<path d="M22.0667 34.288C22.9499 34.288 23.6658 33.5838 23.6658 32.7152C23.6658 31.8465 22.9499 31.1423 22.0667 31.1423C21.1835 31.1423 20.4675 31.8465 20.4675 32.7152C20.4675 33.5838 21.1835 34.288 22.0667 34.288Z" fill="#353535"/>
<path d="M24.3055 11.639C25.1887 11.639 25.9047 10.9349 25.9047 10.0662C25.9047 9.19755 25.1887 8.49336 24.3055 8.49336C23.4223 8.49336 22.7063 9.19755 22.7063 10.0662C22.7063 10.9349 23.4223 11.639 24.3055 11.639Z" fill="#353535"/>
<path d="M24.3055 11.639C25.1887 11.639 25.9047 10.9349 25.9047 10.0662C25.9047 9.19755 25.1887 8.49336 24.3055 8.49336C23.4223 8.49336 22.7063 9.19755 22.7063 10.0662C22.7063 10.9349 23.4223 11.639 24.3055 11.639Z" fill="#353535"/>
<path d="M38.0584 20.7615C38.9416 20.7615 39.6575 20.0574 39.6575 19.1887C39.6575 18.32 38.9416 17.6159 38.0584 17.6159C37.1752 17.6159 36.4592 18.32 36.4592 19.1887C36.4592 20.0574 37.1752 20.7615 38.0584 20.7615Z" fill="#353535"/>
<path d="M38.0584 20.7615C38.9416 20.7615 39.6575 20.0574 39.6575 19.1887C39.6575 18.32 38.9416 17.6159 38.0584 17.6159C37.1752 17.6159 36.4592 18.32 36.4592 19.1887C36.4592 20.0574 37.1752 20.7615 38.0584 20.7615Z" fill="#353535"/>
<path d="M74.5749 32.0467H70.1777V16.7792H74.5749V32.0467ZM74.9881 12.3673C74.9881 13.1606 74.7225 13.7895 74.1913 14.2539C73.6797 14.699 73.0698 14.9215 72.3615 14.9215C71.6533 14.9215 71.0335 14.699 70.5023 14.2539C69.9908 13.7895 69.735 13.1606 69.735 12.3673C69.735 11.5739 69.9908 10.9547 70.5023 10.5096C71.0335 10.0452 71.6533 9.81299 72.3615 9.81299C73.0698 9.81299 73.6797 10.0452 74.1913 10.5096C74.7225 10.9547 74.9881 11.5739 74.9881 12.3673Z" fill="#353535"/>
<path d="M78.7084 17.3016C79.456 17.0888 80.42 16.8953 81.6005 16.7211C82.781 16.5276 84.0204 16.4309 85.319 16.4309C86.6371 16.4309 87.7291 16.605 88.5947 16.9533C89.4801 17.2823 90.1785 17.7564 90.6901 18.3756C91.2016 18.9948 91.5656 19.7301 91.782 20.5815C91.9984 21.433 92.1066 22.3811 92.1066 23.4261V32.0467H87.7094V23.9485C87.7094 22.5553 87.5225 21.5684 87.1487 20.9879C86.7749 20.4074 86.0764 20.1171 85.0533 20.1171C84.7386 20.1171 84.4041 20.1365 84.05 20.1752C83.6958 20.1945 83.381 20.2236 83.1056 20.2623V32.0467H78.7084V17.3016Z" fill="#353535"/>
<path d="M95.9392 12.9768L100.336 12.2802V16.7792H105.619V20.3784H100.336V25.7481C100.336 26.6576 100.494 27.3832 100.809 27.9251C101.143 28.4669 101.802 28.7378 102.786 28.7378C103.258 28.7378 103.74 28.6991 104.232 28.6217C104.743 28.5249 105.206 28.3991 105.619 28.2443L106.239 31.6113C105.708 31.8242 105.117 32.008 104.468 32.1628C103.819 32.3176 103.022 32.395 102.078 32.395C100.877 32.395 99.8839 32.2402 99.0969 31.9306C98.3099 31.6017 97.6804 31.1566 97.2082 30.5954C96.736 30.0149 96.4015 29.3183 96.2048 28.5056C96.0277 27.6929 95.9392 26.7931 95.9392 25.8062V12.9768Z" fill="#353535"/>
<path d="M107.886 24.529C107.886 23.1745 108.092 21.9941 108.505 20.9879C108.938 19.9623 109.499 19.1109 110.187 18.4336C110.876 17.7564 111.663 17.2436 112.548 16.8953C113.453 16.547 114.378 16.3728 115.322 16.3728C117.526 16.3728 119.267 17.0404 120.546 18.3756C121.825 19.6914 122.464 21.6361 122.464 24.2098C122.464 24.4613 122.454 24.7419 122.435 25.0515C122.415 25.3418 122.395 25.603 122.376 25.8352H112.401C112.499 26.7253 112.922 27.4316 113.67 27.9541C114.417 28.4765 115.421 28.7378 116.68 28.7378C117.487 28.7378 118.274 28.6701 119.041 28.5346C119.828 28.3798 120.467 28.196 120.959 27.9831L121.549 31.4952C121.313 31.6113 120.999 31.7274 120.605 31.8435C120.212 31.9596 119.769 32.0564 119.277 32.1338C118.805 32.2305 118.293 32.3079 117.742 32.366C117.192 32.4241 116.641 32.4531 116.09 32.4531C114.693 32.4531 113.473 32.2499 112.43 31.8435C111.407 31.4372 110.551 30.8857 109.863 30.1891C109.194 29.4731 108.692 28.6314 108.358 27.6638C108.043 26.6963 107.886 25.6514 107.886 24.529ZM118.215 22.8746C118.195 22.5069 118.126 22.1489 118.008 21.8006C117.91 21.4523 117.742 21.1427 117.506 20.8718C117.29 20.6009 117.005 20.3784 116.651 20.2042C116.316 20.0301 115.893 19.943 115.382 19.943C114.89 19.943 114.467 20.0301 114.113 20.2042C113.758 20.359 113.463 20.5719 113.227 20.8428C112.991 21.1137 112.804 21.433 112.666 21.8006C112.548 22.1489 112.46 22.5069 112.401 22.8746H118.215Z" fill="#353535"/>
<path d="M135.213 20.6106C134.819 20.5138 134.357 20.4171 133.826 20.3203C133.295 20.2042 132.724 20.1462 132.114 20.1462C131.839 20.1462 131.504 20.1752 131.111 20.2332C130.737 20.2719 130.452 20.3203 130.255 20.3784V32.0467H125.858V17.5919C126.645 17.321 127.569 17.0694 128.632 16.8372C129.714 16.5857 130.914 16.4599 132.232 16.4599C132.468 16.4599 132.754 16.4792 133.088 16.5179C133.422 16.5373 133.757 16.576 134.091 16.634C134.426 16.6727 134.76 16.7308 135.095 16.8082C135.429 16.8662 135.715 16.9436 135.951 17.0404L135.213 20.6106Z" fill="#353535"/>
<path d="M143.951 29.028C144.384 29.028 144.797 29.0184 145.191 28.999C145.584 28.9797 145.899 28.9506 146.135 28.9119V25.632C145.958 25.5933 145.693 25.5546 145.339 25.5159C144.984 25.4772 144.66 25.4579 144.365 25.4579C143.951 25.4579 143.558 25.4869 143.184 25.5449C142.83 25.5836 142.515 25.6707 142.24 25.8062C141.964 25.9416 141.748 26.1255 141.591 26.3577C141.433 26.5899 141.354 26.8801 141.354 27.2284C141.354 27.9057 141.581 28.3798 142.033 28.6507C142.505 28.9023 143.145 29.028 143.951 29.028ZM143.597 16.3728C144.896 16.3728 145.978 16.5179 146.844 16.8082C147.709 17.0985 148.398 17.5145 148.909 18.0563C149.441 18.5981 149.814 19.256 150.031 20.0301C150.247 20.8041 150.355 21.6652 150.355 22.6133V31.6113C149.726 31.7468 148.85 31.9016 147.729 32.0757C146.607 32.2692 145.25 32.366 143.656 32.366C142.653 32.366 141.738 32.2789 140.912 32.1048C140.105 31.9306 139.407 31.65 138.816 31.263C138.226 30.8567 137.774 30.3342 137.459 29.6956C137.144 29.0571 136.987 28.2734 136.987 27.3445C136.987 26.4544 137.164 25.6997 137.518 25.0805C137.892 24.4613 138.384 23.9679 138.994 23.6002C139.603 23.2326 140.302 22.9713 141.089 22.8165C141.876 22.6424 142.692 22.5553 143.538 22.5553C144.109 22.5553 144.611 22.5843 145.043 22.6424C145.496 22.6811 145.86 22.7391 146.135 22.8165V22.4102C146.135 21.6748 145.909 21.0847 145.457 20.6396C145.004 20.1945 144.217 19.972 143.096 19.972C142.348 19.972 141.61 20.0301 140.882 20.1462C140.154 20.2429 139.525 20.388 138.994 20.5815L138.433 17.0985C138.689 17.021 139.003 16.9436 139.377 16.8662C139.771 16.7695 140.194 16.6921 140.646 16.634C141.099 16.5566 141.571 16.4986 142.063 16.4599C142.574 16.4018 143.086 16.3728 143.597 16.3728Z" fill="#353535"/>
<path d="M153.594 24.4129C153.594 23.31 153.771 22.2747 154.125 21.3072C154.499 20.3203 155.03 19.4689 155.719 18.7529C156.407 18.0176 157.243 17.4371 158.227 17.0114C159.211 16.5857 160.332 16.3728 161.592 16.3728C162.418 16.3728 163.175 16.4502 163.864 16.605C164.553 16.7405 165.221 16.9436 165.871 17.2146L164.956 20.6686C164.543 20.5138 164.09 20.3784 163.598 20.2623C163.106 20.1462 162.556 20.0881 161.946 20.0881C160.647 20.0881 159.673 20.4848 159.024 21.2782C158.394 22.0715 158.08 23.1165 158.08 24.4129C158.08 25.7868 158.375 26.8511 158.965 27.6058C159.575 28.3604 160.627 28.7378 162.123 28.7378C162.654 28.7378 163.224 28.6894 163.834 28.5927C164.444 28.4959 165.005 28.3411 165.517 28.1282L166.136 31.6694C165.625 31.8822 164.985 32.0661 164.218 32.2209C163.451 32.3757 162.605 32.4531 161.68 32.4531C160.263 32.4531 159.044 32.2499 158.021 31.8435C156.998 31.4178 156.152 30.847 155.483 30.131C154.833 29.415 154.351 28.5733 154.037 27.6058C153.741 26.6189 153.594 25.5546 153.594 24.4129Z" fill="#353535"/>
<path d="M168.94 12.9768L173.337 12.2802V16.7792H178.62V20.3784H173.337V25.7481C173.337 26.6576 173.494 27.3832 173.809 27.9251C174.144 28.4669 174.803 28.7378 175.787 28.7378C176.259 28.7378 176.741 28.6991 177.233 28.6217C177.744 28.5249 178.207 28.3991 178.62 28.2443L179.239 31.6113C178.708 31.8242 178.118 32.008 177.469 32.1628C176.819 32.3176 176.023 32.395 175.078 32.395C173.878 32.395 172.885 32.2402 172.098 31.9306C171.311 31.6017 170.681 31.1566 170.209 30.5954C169.737 30.0149 169.402 29.3183 169.205 28.5056C169.028 27.6929 168.94 26.7931 168.94 25.8062V12.9768Z" fill="#353535"/>
<path d="M186.598 32.0467H182.2V16.7792H186.598V32.0467ZM187.011 12.3673C187.011 13.1606 186.745 13.7895 186.214 14.2539C185.703 14.699 185.093 14.9215 184.384 14.9215C183.676 14.9215 183.056 14.699 182.525 14.2539C182.014 13.7895 181.758 13.1606 181.758 12.3673C181.758 11.5739 182.014 10.9547 182.525 10.5096C183.056 10.0452 183.676 9.81299 184.384 9.81299C185.093 9.81299 185.703 10.0452 186.214 10.5096C186.745 10.9547 187.011 11.5739 187.011 12.3673Z" fill="#353535"/>
<path d="M194.49 32.0467C193.487 30.1117 192.464 27.8477 191.421 25.2547C190.398 22.6617 189.424 19.8365 188.499 16.7792H193.162C193.359 17.5338 193.585 18.3562 193.841 19.2464C194.116 20.1171 194.392 21.0073 194.667 21.9167C194.962 22.8069 195.248 23.6776 195.523 24.529C195.818 25.3805 196.103 26.1545 196.379 26.8511C196.635 26.1545 196.91 25.3805 197.205 24.529C197.5 23.6776 197.786 22.8069 198.061 21.9167C198.356 21.0073 198.632 20.1171 198.887 19.2464C199.163 18.3562 199.399 17.5338 199.596 16.7792H204.14C203.216 19.8365 202.232 22.6617 201.189 25.2547C200.166 27.8477 199.153 30.1117 198.15 32.0467H194.49Z" fill="#353535"/>
<path d="M205.354 24.529C205.354 23.1745 205.561 21.9941 205.974 20.9879C206.407 19.9623 206.968 19.1109 207.656 18.4336C208.345 17.7564 209.132 17.2436 210.017 16.8953C210.922 16.547 211.847 16.3728 212.791 16.3728C214.995 16.3728 216.736 17.0404 218.015 18.3756C219.294 19.6914 219.933 21.6361 219.933 24.2098C219.933 24.4613 219.923 24.7419 219.904 25.0515C219.884 25.3418 219.864 25.603 219.845 25.8352H209.87C209.968 26.7253 210.391 27.4316 211.139 27.9541C211.886 28.4765 212.89 28.7378 214.149 28.7378C214.955 28.7378 215.742 28.6701 216.51 28.5346C217.297 28.3798 217.936 28.196 218.428 27.9831L219.018 31.4952C218.782 31.6113 218.467 31.7274 218.074 31.8435C217.68 31.9596 217.238 32.0564 216.746 32.1338C216.274 32.2305 215.762 32.3079 215.211 32.366C214.66 32.4241 214.109 32.4531 213.559 32.4531C212.162 32.4531 210.942 32.2499 209.899 31.8435C208.876 31.4372 208.02 30.8857 207.332 30.1891C206.663 29.4731 206.161 28.6314 205.827 27.6638C205.512 26.6963 205.354 25.6514 205.354 24.529ZM215.683 22.8746C215.664 22.5069 215.595 22.1489 215.477 21.8006C215.378 21.4523 215.211 21.1427 214.975 20.8718C214.759 20.6009 214.473 20.3784 214.119 20.2042C213.785 20.0301 213.362 19.943 212.85 19.943C212.358 19.943 211.935 20.0301 211.581 20.2042C211.227 20.359 210.932 20.5719 210.696 20.8428C210.46 21.1137 210.273 21.433 210.135 21.8006C210.017 22.1489 209.929 22.5069 209.87 22.8746H215.683Z" fill="#353535"/>
</svg>
