<svg width="211" height="44" viewBox="0 0 211 44" fill="none" xmlns="http://www.w3.org/2000/svg">
<path d="M76.2341 3.03467H81.7934L88.6402 21.3531H84.0172L82.3201 16.5265H75.3856L73.7178 21.3531H69.2118L76.2341 3.03467ZM81.3253 13.591L78.926 6.70399H78.809L76.4097 13.591H81.3253Z" fill="#353535"/>
<path d="M89.283 18.6434H90.1315C90.5217 18.6434 90.902 18.3894 91.2726 17.8813C91.6628 17.3544 91.9944 16.4324 92.2675 15.1152C92.5406 13.7792 92.6771 11.9916 92.6771 9.75236V7.69189H103.679V18.6434H105.873V22.9509H102.362V21.3531H93.1745V22.9509H89.283V18.6434ZM99.4068 18.7281V10.2886H96.1883V10.6556C96.1883 12.5561 96.042 14.1932 95.7494 15.5668C95.4568 16.9405 95.0374 17.9942 94.4912 18.7281H99.4068Z" fill="#353535"/>
<path d="M109.103 10.4015H107.537V7.69189H113.375V12.2644H115.013C116.983 12.2644 118.446 12.3679 119.402 12.5749C120.378 12.7819 121.041 13.1488 121.392 13.6757C121.763 14.2026 121.948 15.0117 121.948 16.1031V17.712C121.948 19.0103 121.392 19.9418 120.28 20.5063C119.168 21.0708 117.442 21.3531 115.101 21.3531H109.103V10.4015ZM114.896 18.7845C115.677 18.7845 116.252 18.7375 116.623 18.6434C116.993 18.5305 117.237 18.3612 117.354 18.1354C117.471 17.9095 117.53 17.5708 117.53 17.1192V16.3571C117.53 15.9432 117.452 15.6327 117.296 15.4257C117.159 15.1999 116.905 15.0494 116.535 14.9741C116.184 14.8988 115.657 14.8612 114.955 14.8612H113.316V18.7845H114.896Z" fill="#353535"/>
<path d="M138.245 21.6353C136.802 21.6353 135.573 21.5224 134.559 21.2966C133.564 21.052 132.754 20.5722 132.13 19.8571C131.506 19.1232 131.194 18.0601 131.194 16.6676V15.6515H128.414V21.3531H124.142V7.69189H128.414V12.9418H131.194V12.6314C131.194 11.0507 131.545 9.88408 132.247 9.13139C132.969 8.35989 133.808 7.88006 134.763 7.69189C135.739 7.50372 136.899 7.40963 138.245 7.40963C139.669 7.40963 140.879 7.53194 141.874 7.77657C142.888 8.02119 143.707 8.52925 144.331 9.30075C144.975 10.0534 145.297 11.1636 145.297 12.6314V16.6676C145.297 18.173 144.946 19.2926 144.244 20.0265C143.541 20.7415 142.703 21.1837 141.727 21.3531C140.771 21.5412 139.611 21.6353 138.245 21.6353ZM138.245 19.0668C139.338 19.0668 140.069 18.9351 140.44 18.6716C140.83 18.3894 141.025 17.8813 141.025 17.1475V11.9822C141.025 11.2295 140.83 10.7026 140.44 10.4015C140.05 10.1005 139.318 9.94994 138.245 9.94994C137.173 9.94994 136.441 10.1005 136.051 10.4015C135.661 10.7026 135.466 11.2295 135.466 11.9822V17.1475C135.466 17.8813 135.651 18.3894 136.022 18.6716C136.412 18.9351 137.153 19.0668 138.245 19.0668Z" fill="#353535"/>
<path d="M152.024 10.4015H147.343V7.69189H160.978V10.4015H156.296V21.3531H152.024V10.4015Z" fill="#353535"/>
<path d="M170.541 21.6353C165.528 21.6353 163.022 20.1582 163.022 17.2039V12.2927C163.022 10.5803 163.587 9.33838 164.719 8.56688C165.87 7.79538 167.635 7.40963 170.015 7.40963C172.258 7.40963 173.896 7.78597 174.93 8.53866C175.984 9.27252 176.51 10.5239 176.51 12.2927V15.6233H167.323V16.8652C167.323 17.6555 167.615 18.22 168.201 18.5587C168.786 18.8974 169.839 19.0668 171.361 19.0668C172.765 19.0668 174.345 18.8692 176.101 18.4741V21.099C174.365 21.4566 172.512 21.6353 170.541 21.6353ZM172.443 13.2806V11.3048C172.443 10.8532 172.248 10.5144 171.858 10.2886C171.487 10.0628 170.854 9.94994 169.956 9.94994C168.922 9.94994 168.23 10.0628 167.879 10.2886C167.508 10.5333 167.323 10.872 167.323 11.3048V13.2806H172.443Z" fill="#353535"/>
<path d="M179.776 7.69189H183.813V9.04672C184.067 8.44457 184.564 8.02119 185.306 7.77657C186.047 7.53194 187.149 7.40963 188.612 7.40963C189.841 7.40963 190.826 7.50372 191.567 7.69189C192.328 7.88006 192.903 8.18113 193.294 8.59511C193.664 9.00908 193.918 9.4701 194.054 9.97816C194.191 10.4674 194.259 11.1448 194.259 12.0104V16.4983C194.259 17.8531 194.054 18.8974 193.645 19.6313C193.235 20.3652 192.601 20.8826 191.743 21.1837C190.904 21.4848 189.753 21.6353 188.29 21.6353C186.886 21.6353 185.871 21.5224 185.247 21.2966C184.623 21.0708 184.223 20.6286 184.047 19.97V25.0347H179.776V7.69189ZM186.973 19.0668C187.812 19.0668 188.446 19.0103 188.875 18.8974C189.304 18.7845 189.597 18.587 189.753 18.3047C189.909 18.0225 189.987 17.5991 189.987 17.0346V11.9822C189.987 11.3612 189.919 10.919 189.782 10.6556C189.646 10.3733 189.373 10.1851 188.963 10.0911C188.553 9.99698 187.88 9.94994 186.944 9.94994C186.144 9.94994 185.53 10.0158 185.101 10.1475C184.691 10.2792 184.408 10.4862 184.252 10.7685C184.116 11.0507 184.047 11.4553 184.047 11.9822V17.0346C184.047 17.5991 184.116 18.0225 184.252 18.3047C184.408 18.587 184.691 18.7845 185.101 18.8974C185.51 19.0103 186.135 19.0668 186.973 19.0668Z" fill="#353535"/>
<path d="M201.614 21.6353C200.288 21.6353 199.293 21.5224 198.63 21.2966C197.986 21.052 197.528 20.6286 197.255 20.0265C197.001 19.4055 196.874 18.4835 196.874 17.2604C196.874 16.169 197.011 15.3128 197.284 14.6918C197.576 14.0709 198.035 13.6287 198.659 13.3652C199.303 13.083 200.181 12.9418 201.292 12.9418H206.091V12.0104C206.091 11.4271 206.003 10.9943 205.828 10.712C205.672 10.4298 205.369 10.2322 204.921 10.1193C204.491 10.0064 203.838 9.94994 202.96 9.94994C201.751 9.94994 200.093 10.0628 197.986 10.2886V7.69189C199.527 7.50372 201.331 7.40963 203.399 7.40963C205.213 7.40963 206.608 7.54135 207.583 7.80479C208.578 8.06823 209.29 8.51984 209.719 9.15962C210.148 9.7994 210.363 10.7308 210.363 11.954V21.3531H206.179V20.1111C205.847 20.6568 205.398 21.0426 204.833 21.2684C204.267 21.513 203.194 21.6353 201.614 21.6353ZM203.282 19.0668C204.14 19.0668 204.755 19.0386 205.125 18.9821C205.398 18.9445 205.584 18.888 205.681 18.8128C205.798 18.7375 205.896 18.6152 205.974 18.4458C206.052 18.3141 206.091 18.1165 206.091 17.8531V15.1999H203.165C202.502 15.1999 202.034 15.2469 201.761 15.341C201.487 15.4163 201.302 15.5856 201.205 15.8491C201.107 16.0937 201.058 16.5359 201.058 17.1757C201.058 17.7966 201.107 18.2294 201.205 18.4741C201.302 18.7187 201.487 18.8786 201.761 18.9539C202.053 19.0292 202.56 19.0668 203.282 19.0668Z" fill="#353535"/>
<path d="M70.0899 39.5932C69.5045 39.5932 69.2118 39.2596 69.2118 38.5925V29.587H79.7911V38.5925C79.7911 39.2596 79.4984 39.5932 78.913 39.5932C78.3276 39.5932 78.0349 39.2596 78.0349 38.5925V31.3381H70.968V38.5925C70.968 39.2596 70.6753 39.5932 70.0899 39.5932Z" fill="#353535"/>
<path d="M83.5442 43.2412C82.9727 43.2412 82.687 42.8869 82.687 42.1781V30.4417C82.687 29.7746 82.9867 29.4411 83.586 29.4411C83.8996 29.4411 84.1157 29.5383 84.2342 29.7329C84.3596 29.9275 84.4223 30.261 84.4223 30.7335V31.3589L84.1087 30.942C84.5478 30.4625 85.1018 30.1186 85.7709 29.9101C86.4469 29.6947 87.224 29.587 88.1021 29.587H88.7084C90.0465 29.587 91.1093 29.7086 91.8968 29.9518C92.6844 30.195 93.2489 30.598 93.5904 31.1609C93.9318 31.7168 94.1026 32.4707 94.1026 33.4227V35.6115C94.1026 36.5635 93.9318 37.3209 93.5904 37.8838C93.2489 38.4397 92.6878 38.8392 91.9073 39.0824C91.1337 39.3256 90.0883 39.4472 88.7711 39.4472H84.4432V42.1781C84.4432 42.8869 84.1436 43.2412 83.5442 43.2412ZM84.4432 37.6962H88.7711C89.8026 37.6962 90.5727 37.6475 91.0814 37.5502C91.5902 37.446 91.9282 37.241 92.0955 36.9353C92.2627 36.6226 92.3463 36.1605 92.3463 35.549V33.4852C92.3463 32.8668 92.2592 32.4047 92.085 32.0989C91.9177 31.7932 91.5728 31.5917 91.0501 31.4944C90.5343 31.3902 89.7538 31.3381 88.7084 31.3381H88.1021C86.8406 31.3381 85.9137 31.5952 85.3214 32.1094C84.7359 32.6166 84.4432 33.4088 84.4432 34.4858V37.6962Z" fill="#353535"/>
<path d="M101.816 39.4472C100.478 39.4472 99.4115 39.3291 98.617 39.0928C97.8295 38.8496 97.2615 38.4501 96.913 37.8942C96.5716 37.3313 96.4008 36.5705 96.4008 35.6115V33.4227C96.4008 32.4638 96.5716 31.7063 96.913 31.1504C97.2615 30.5876 97.8295 30.188 98.617 29.9518C99.4115 29.7086 100.478 29.587 101.816 29.587H102.422C103.76 29.587 104.823 29.7086 105.611 29.9518C106.398 30.195 106.963 30.598 107.304 31.1609C107.646 31.7168 107.816 32.4707 107.816 33.4227V35.6115C107.816 36.5635 107.646 37.3209 107.304 37.8838C106.963 38.4397 106.398 38.8392 105.611 39.0824C104.823 39.3256 103.76 39.4472 102.422 39.4472H101.816ZM101.816 37.6962H102.422C103.468 37.6962 104.248 37.6475 104.764 37.5502C105.287 37.446 105.632 37.241 105.799 36.9353C105.973 36.6226 106.06 36.1605 106.06 35.549V33.4852C106.06 32.8668 105.973 32.4047 105.799 32.0989C105.632 31.7932 105.287 31.5917 104.764 31.4944C104.248 31.3902 103.468 31.3381 102.422 31.3381H101.816C100.764 31.3381 99.976 31.3902 99.4533 31.4944C98.9306 31.5917 98.5822 31.7932 98.408 32.0989C98.2407 32.4047 98.1571 32.8668 98.1571 33.4852V35.549C98.1571 36.1605 98.2407 36.6226 98.408 36.9353C98.5822 37.241 98.9306 37.446 99.4533 37.5502C99.976 37.6475 100.764 37.6962 101.816 37.6962Z" fill="#353535"/>
<path d="M117.397 43.2412C116.812 43.2412 116.519 42.8869 116.519 42.1781V38.6238C116.185 38.9018 115.801 39.1102 115.369 39.2492C114.937 39.3812 114.463 39.4472 113.948 39.4472C111.369 39.4472 110.08 38.0297 110.08 35.1946V33.8396C110.08 31.0045 111.369 29.587 113.948 29.587C114.463 29.587 114.937 29.6565 115.369 29.7954C115.801 29.9275 116.185 30.1325 116.519 30.4104V26.8561C116.519 26.1474 116.812 25.793 117.397 25.793C117.983 25.793 118.276 26.1474 118.276 26.8561V30.4104C118.61 30.1325 118.993 29.9275 119.425 29.7954C119.864 29.6565 120.338 29.587 120.847 29.587C123.426 29.587 124.715 31.0045 124.715 33.8396V35.1946C124.715 36.5983 124.391 37.6579 123.743 38.3737C123.102 39.0894 122.136 39.4472 120.847 39.4472C120.338 39.4472 119.864 39.3812 119.425 39.2492C118.993 39.1102 118.61 38.9018 118.276 38.6238V42.1781C118.276 42.8869 117.983 43.2412 117.397 43.2412ZM113.969 37.6962C114.575 37.6962 115.066 37.5537 115.443 37.2688C115.819 36.9839 116.091 36.6017 116.258 36.1223C116.432 35.6359 116.519 35.0973 116.519 34.5067C116.519 33.8813 116.432 33.3323 116.258 32.8598C116.084 32.3804 115.805 32.0086 115.422 31.7446C115.045 31.4736 114.554 31.3381 113.948 31.3381C113.481 31.3381 113.104 31.4006 112.819 31.5257C112.54 31.6438 112.327 31.814 112.181 32.0364C112.042 32.2588 111.947 32.5228 111.899 32.8286C111.857 33.1343 111.836 33.4713 111.836 33.8396V35.1946C111.836 36.1118 111.993 36.7581 112.306 37.1333C112.62 37.5085 113.174 37.6962 113.969 37.6962ZM120.91 37.6962C121.46 37.6962 121.882 37.5989 122.175 37.4043C122.474 37.2028 122.68 36.9179 122.792 36.5496C122.903 36.1744 122.959 35.7227 122.959 35.1946V33.8396C122.959 32.9224 122.802 32.2761 122.488 31.9009C122.175 31.5257 121.621 31.3381 120.826 31.3381C120.227 31.3381 119.739 31.4805 119.363 31.7654C118.986 32.0503 118.711 32.4325 118.537 32.9119C118.363 33.3914 118.276 33.923 118.276 34.5067C118.276 35.1599 118.37 35.7262 118.558 36.2056C118.753 36.6782 119.046 37.0464 119.436 37.3105C119.826 37.5676 120.317 37.6962 120.91 37.6962Z" fill="#353535"/>
<path d="M136.981 39.5932C136.395 39.5932 136.103 39.2318 136.103 38.5092V32.0677L128.921 39.4472H127.28V30.4625C127.28 29.7815 127.572 29.4411 128.158 29.4411C128.743 29.4411 129.036 29.8024 129.036 30.5251V37.0499L136.28 29.587H137.859V38.5717C137.859 39.2527 137.566 39.5932 136.981 39.5932Z" fill="#353535"/>
<path d="M26.7006 30.7466H1.71283L8.75467 43.9996L34.5914 43.9996L26.7006 30.7466Z" fill="#353535"/>
<path d="M18.8613 0L0.903748 30.6087L8.75418 44L34.5742 0H18.8613Z" fill="#353535"/>
<path d="M18.8631 0L44.7481 44L44.7813 44L60.4624 44L34.6593 0H18.8631Z" fill="#353535"/>
</svg>
