<svg width="190" height="31" viewBox="0 0 190 31" fill="none" xmlns="http://www.w3.org/2000/svg">
<path fill-rule="evenodd" clip-rule="evenodd" d="M168.189 0V11.5811H170.706L178.855 0H189.041L177.896 15.0555L190 30.69H179.574L170.706 18.6456H168.189V30.69H159.681V0H168.189ZM103.477 0V11.5811H105.993L114.142 0H124.329L113.184 15.0555L125.287 30.69H114.862L105.993 18.6456H103.477V30.69H94.9684V0H103.477Z" fill="#353535"/>
<path d="M146.573 11.0982H155.082V9.85251C155.082 6.11535 154.003 3.51066 151.726 2.03845C149.809 0.679483 146.573 0 142.139 0C136.986 0 133.391 0.679483 131.234 2.03845C128.597 3.73716 127.279 6.79483 127.279 11.438V19.1388C127.279 22.5362 127.878 25.1409 129.197 26.9528C130.395 28.5383 132.073 29.5575 134.469 30.1238C136.027 30.4635 138.544 30.69 142.139 30.69C147.172 30.69 150.648 29.8973 152.445 28.4251C154.243 26.9528 155.201 24.1217 155.201 19.9315V19.0255H146.453V19.9315C146.453 21.517 145.974 22.6495 145.135 23.1024C144.536 23.4422 143.218 23.6687 141.3 23.6687C138.903 23.6687 137.465 23.2157 136.746 22.1965C136.267 21.4037 136.027 19.8183 136.027 17.3268V12.6837C136.027 10.4187 136.267 8.94653 136.866 8.26705C137.585 7.47432 139.023 7.02133 141.3 7.02133C142.978 7.02133 144.176 7.24783 145.015 7.58757C146.094 8.04056 146.573 8.83328 146.573 9.96576V11.0982Z" fill="#353535"/>
<path d="M56.6881 11.9029L56.7594 11.8336L76.2011 30.69H88.23L88.3161 30.6066L56.7594 0L56.6881 0.0692374V11.9029Z" fill="#353535"/>
<path d="M44.1284 11.333L32.4436 0L0.886963 30.6066L0.972988 30.69H13.0019L32.4436 11.8336L51.8853 30.69H63.9142L64.0002 30.6066L47.7414 14.8373V7.49498H44.1284V11.333Z" fill="#353535"/>
</svg>
