<svg width="218" height="37" viewBox="0 0 218 37" fill="none" xmlns="http://www.w3.org/2000/svg">
<path d="M14.6735 8.28685C12.0737 12.7719 10.8919 18.8809 9.86776 24.2165C9.7102 25.1445 9.55264 26.0724 9.31629 26.923C9.07994 28.083 9.07994 29.1656 9.23751 30.2482C6.32258 27.6963 3.40765 24.9125 1.67445 21.974C-4.54931 10.3747 7.89822 0.70865 17.352 5.03905C16.4067 5.96699 15.5401 7.04959 14.6735 8.28685Z" fill="#353535"/>
<path d="M33.5023 5.57996C31.6903 4.57468 29.5632 3.95605 27.3573 3.95605C24.8363 3.95605 22.2365 4.80667 20.0306 6.73988C19.0852 7.5905 18.2186 8.59577 17.4308 9.83303C15.0674 13.8541 14.0432 19.6538 13.019 24.7574C12.8615 25.6854 12.6251 26.6133 12.4676 27.4639C11.8373 30.5571 13.3342 33.7276 16.0127 35.1968C18.7701 36.7434 22.2365 36.4341 24.6787 34.3462C25.0726 33.9596 25.5453 33.6502 25.9392 33.2636C26.3332 32.9543 26.7271 32.5676 27.121 32.2583C31.0601 29.0105 35.4718 25.2987 37.8353 21.355C41.538 14.3181 38.3868 8.36378 33.5023 5.57996ZM33.1084 19.7311C32.6357 20.5044 32.0054 21.2777 31.2176 21.8963C30.4298 22.5149 29.5632 23.1335 28.6178 23.5202C28.0664 23.7522 27.5937 23.9068 27.0422 24.0615C26.4907 24.2161 25.9392 24.2935 25.4666 24.2935C24.6 24.2935 23.7334 24.0615 23.0243 23.6748C21.5275 22.8242 20.5821 21.123 20.3457 18.8805C20.1094 16.8699 20.5821 14.7047 21.4487 13.0808C21.9214 12.2302 22.5516 11.5343 23.3394 10.993C23.9697 10.529 24.6787 10.2197 25.4666 9.98769C27.1998 9.52371 29.0117 9.7557 30.5086 10.6836C32.0842 11.5343 33.1872 13.0035 33.6599 14.6274C34.2901 16.4833 34.0538 18.2618 33.1084 19.7311Z" fill="#353535"/>
<path d="M30.9026 16.4835C30.9026 17.1021 30.745 17.6434 30.4299 18.1847C29.8784 19.19 28.6179 20.1953 27.3574 20.7366C27.0423 20.8912 26.7272 20.9686 26.4908 21.0459C25.6242 21.2779 24.994 21.2006 24.6788 21.0459C24.2061 20.8139 23.7334 20.0406 23.5759 18.6487C23.4183 17.2568 23.7334 15.7102 24.2849 14.7823C24.4425 14.5503 24.5213 14.3956 24.6788 14.241C25.1515 13.777 25.703 13.3904 26.412 13.2357C26.7272 13.1584 27.0423 13.0811 27.3574 13.0811C27.9877 13.0811 28.6179 13.2357 29.1694 13.545C30.036 14.009 30.5875 14.7823 30.8238 15.6329C30.8238 15.8649 30.9026 16.1742 30.9026 16.4835Z" fill="#353535"/>
<path d="M121.108 20.2038C121.108 26.2121 116.263 31.0827 110.286 31.0827C104.309 31.0827 99.4636 26.2121 99.4636 20.2038C99.4636 14.1955 104.309 9.32483 110.286 9.32483C116.263 9.32483 121.108 14.1955 121.108 20.2038ZM104.334 20.2038C104.334 23.5083 106.999 26.1872 110.286 26.1872C113.573 26.1872 116.238 23.5083 116.238 20.2038C116.238 16.8992 113.573 14.2204 110.286 14.2204C106.999 14.2204 104.334 16.8992 104.334 20.2038Z" fill="#353535"/>
<path d="M143.723 26.6737C142.364 28.5207 140.458 29.8877 138.278 30.5789C136.099 31.27 133.757 31.2497 131.59 30.5209C129.422 29.7921 127.54 28.3923 126.213 26.522C124.885 24.6517 124.181 22.407 124.201 20.1096C124.221 17.8122 124.963 15.5801 126.323 13.7332C127.682 11.8863 129.588 10.5194 131.768 9.82847C133.948 9.13752 136.289 9.15798 138.456 9.88692C140.624 10.6159 142.506 12.0159 143.833 13.8863L139.869 16.7291C139.139 15.7004 138.103 14.9304 136.911 14.5295C135.719 14.1286 134.431 14.1173 133.233 14.4974C132.034 14.8774 130.985 15.6292 130.238 16.645C129.49 17.6608 129.082 18.8884 129.071 20.152C129.06 21.4155 129.447 22.6501 130.177 23.6788C130.907 24.7075 131.942 25.4774 133.135 25.8782C134.327 26.279 135.614 26.2902 136.813 25.9101C138.012 25.53 139.06 24.7781 139.808 23.7622L143.723 26.6737Z" fill="#353535"/>
<path d="M217.582 20.2038C217.582 26.2121 212.736 31.0827 206.759 31.0827C200.782 31.0827 195.937 26.2121 195.937 20.2038C195.937 14.1955 200.782 9.32483 206.759 9.32483C212.736 9.32483 217.582 14.1955 217.582 20.2038ZM200.807 20.2038C200.807 23.5083 203.472 26.1872 206.759 26.1872C210.047 26.1872 212.712 23.5083 212.712 20.2038C212.712 16.8992 210.047 14.2204 206.759 14.2204C203.472 14.2204 200.807 16.8992 200.807 20.2038Z" fill="#353535"/>
<path fill-rule="evenodd" clip-rule="evenodd" d="M71.6348 31.0827H66.6874V29.3418C64.9955 30.4433 62.9783 31.0827 60.8125 31.0827C54.8355 31.0827 49.9901 26.2121 49.9901 20.2038C49.9901 14.1955 54.8355 9.32483 60.8125 9.32483C62.9783 9.32483 64.9955 9.96431 66.6874 11.0658V9.32483H71.6348V31.0827ZM60.8125 26.1872C57.5251 26.1872 54.8602 23.5084 54.8602 20.2038C54.8602 16.8992 57.5251 14.2204 60.8125 14.2204C64.0998 14.2204 66.7647 16.8992 66.7647 20.2038C66.7647 23.5084 64.0998 26.1872 60.8125 26.1872Z" fill="#353535"/>
<path fill-rule="evenodd" clip-rule="evenodd" d="M168.108 31.0827H163.161V29.3418C161.469 30.4432 159.452 31.0827 157.286 31.0827C151.309 31.0827 146.463 26.2121 146.463 20.2038C146.463 14.1955 151.309 9.32483 157.286 9.32483C159.452 9.32483 161.469 9.96436 163.161 11.0658V9.32483H168.108V31.0827ZM157.286 26.1872C153.998 26.1872 151.333 23.5083 151.333 20.2038C151.333 16.8992 153.998 14.2204 157.286 14.2204C160.573 14.2204 163.238 16.8992 163.238 20.2038C163.238 23.5083 160.573 26.1872 157.286 26.1872Z" fill="#353535"/>
<path fill-rule="evenodd" clip-rule="evenodd" d="M192.845 0H187.897V11.0658C186.206 9.96431 184.188 9.32483 182.023 9.32483C176.046 9.32483 171.2 14.1955 171.2 20.2038C171.2 26.2121 176.046 31.0827 182.023 31.0827C184.188 31.0827 186.206 30.4433 187.897 29.3418V31.0827H192.845V0ZM182.023 26.1872C178.735 26.1872 176.07 23.5084 176.07 20.2038C176.07 16.8992 178.735 14.2204 182.023 14.2204C185.31 14.2204 187.975 16.8992 187.975 20.2038C187.975 23.5084 185.31 26.1872 182.023 26.1872Z" fill="#353535"/>
<path fill-rule="evenodd" clip-rule="evenodd" d="M98.8452 9.94648L89.7724 31.0827H84.4181L75.3453 9.94648H80.999L87.1955 24.7142L93.5787 9.94648H98.8452Z" fill="#353535"/>
</svg>
