<svg width="144" height="63" viewBox="0 0 144 63" fill="none" xmlns="http://www.w3.org/2000/svg">
<path fill-rule="evenodd" clip-rule="evenodd" d="M109.255 44.1L144 0L120.113 63L0 44.6362L109.255 44.1Z" fill="#353535"/>
<path fill-rule="evenodd" clip-rule="evenodd" d="M21.7595 24.509C21.437 23.5041 20.9077 22.5759 20.2048 21.7825C19.5676 21.0816 18.7773 20.533 17.8938 20.178C16.9853 19.8194 16.0148 19.6391 15.0364 19.6472C14.1889 19.6499 13.3451 19.7594 12.5256 19.973C11.6546 20.2001 10.8226 20.5538 10.057 21.0225L11.0234 23.9661C11.5397 23.6874 12.0814 23.4572 12.6412 23.2785C13.3726 23.0382 14.1395 22.92 14.9102 22.9286C16.0305 22.9286 16.9164 23.2342 17.5679 23.8455C18.2194 24.4567 18.6291 25.4057 18.797 26.6925H12.7674V29.878H18.8601C18.6921 31.1809 18.2719 32.1661 17.5995 32.8337C16.9272 33.5012 16.0308 33.835 14.9103 33.835C14.4836 33.8372 14.0578 33.7968 13.6393 33.7143C13.2678 33.6417 12.9026 33.5409 12.5468 33.4127C12.2413 33.3025 11.9431 33.1736 11.6539 33.0267C11.3877 32.8902 11.1566 32.7736 10.9606 32.6768L9.91011 35.6928C10.6659 36.1407 11.4736 36.4972 12.3158 36.7544C13.1788 37.0037 14.0743 37.1257 14.9735 37.1163C15.9482 37.1221 16.9161 36.9545 17.8308 36.6217C18.7253 36.2934 19.5282 35.76 20.1733 35.0655C20.883 34.2826 21.4196 33.3623 21.7491 32.3632C22.1342 31.2696 22.3268 29.9506 22.3268 28.4062C22.3264 26.9099 22.1373 25.6108 21.7595 24.509ZM34.2602 26.4512H28.7557V20.0574H25.4781V36.7779H28.7557V29.6843H34.2602V36.7779H37.5378V20.0574H34.2602V26.4512ZM52.0552 36.7779V33.6178H45.0169V29.5885H50.8367V26.5002H45.0169V23.2188H51.5723V20.0581H41.7395V36.7785L52.0552 36.7779ZM57.528 19.9609C56.7821 20.0227 56.0415 20.1356 55.3115 20.2987V36.7779H58.5889V30.6736H60.2067C60.4876 31.0596 60.7688 31.4899 61.0503 31.9644C61.3318 32.4389 61.6166 32.9416 61.9046 33.4724C62.1927 34.0032 62.4737 34.5501 62.7478 35.1131C63.0219 35.676 63.2926 36.231 63.56 36.7779H67.2244C66.9723 36.1667 66.6992 35.5434 66.4051 34.908C66.1109 34.2725 65.8063 33.6613 65.4911 33.0743C65.176 32.4874 64.8574 31.9244 64.5352 31.3853C64.2131 30.8463 63.905 30.3678 63.6108 29.9497C64.4395 29.5776 65.143 28.979 65.6383 28.2246C66.1073 27.4928 66.3419 26.5398 66.3421 25.3655C66.3421 23.4835 65.7608 22.0962 64.5982 21.2035C63.4356 20.3107 61.7617 19.8644 59.5765 19.8644C58.9741 19.8648 58.2913 19.897 57.528 19.9609ZM62.1501 23.5921C62.6892 23.9382 62.9588 24.5213 62.959 25.3414C62.959 26.1941 62.6928 26.7973 62.1605 27.1509C61.6282 27.5045 60.746 27.6815 59.514 27.6817H58.5894V23.1457C58.7576 23.1299 58.9363 23.1138 59.1253 23.0975C59.3143 23.0811 59.5279 23.0731 59.766 23.0734C60.8161 23.0734 61.6108 23.2463 62.1501 23.5921ZM72.6022 23.2423H79.2622V20.0574H69.3247V36.7779H72.6022V23.2423ZM84.5354 36.7779C85.4737 34.8639 86.4891 32.9739 87.5818 31.1079C88.646 29.285 89.8104 27.5211 91.0698 25.8239V36.7779H94.3052V20.0574H91.637C91.1749 20.5882 90.6637 21.2397 90.1033 22.0117C89.543 22.7838 88.9722 23.6082 88.3911 24.4848C87.8096 25.3617 87.2319 26.2705 86.6578 27.2113C86.0837 28.152 85.5444 29.0568 85.04 29.9256V20.0574H81.7831V36.7779H84.5354ZM105.377 23.1223C105.573 23.1223 105.755 23.1303 105.923 23.1464V27.6583H104.557C103.521 27.6583 102.74 27.4974 102.215 27.1757C101.69 26.854 101.427 26.2669 101.428 25.4144C101.413 25.0228 101.507 24.6347 101.701 24.2925C101.875 24.0029 102.121 23.7621 102.415 23.5928C102.732 23.4159 103.076 23.2935 103.434 23.2309C103.832 23.1573 104.237 23.1209 104.642 23.1223H105.377ZM101.984 20.239C101.211 20.442 100.489 20.7992 99.8618 21.2886C99.281 21.7547 98.8203 22.35 98.5172 23.0258C98.1879 23.7877 98.0267 24.6103 98.0445 25.4385C98.0355 26.0289 98.1097 26.6176 98.265 27.1878C98.3928 27.6512 98.5874 28.0941 98.8428 28.5028C99.0664 28.8559 99.3387 29.1767 99.6517 29.4558C99.929 29.7048 100.236 29.9195 100.566 30.0952C100.327 30.4654 100.068 30.8957 99.7882 31.386C99.5083 31.8763 99.2212 32.4112 98.9269 32.9905C98.6327 33.5696 98.342 34.1808 98.0549 34.8242C97.7679 35.4676 97.4983 36.1191 97.2462 36.7785H100.7C101.178 35.6366 101.695 34.5227 102.25 33.4369C102.806 32.351 103.316 31.4462 103.78 30.7225C103.982 30.752 104.185 30.7682 104.389 30.7708H105.923V36.7785H109.201V20.4193C108.431 20.2266 107.649 20.0895 106.859 20.0092C106.171 19.9347 105.481 19.8944 104.789 19.8885C103.842 19.8771 102.898 19.9955 101.984 20.239Z" fill="#353535"/>
</svg>
