<svg width="155" height="55" viewBox="0 0 155 55" fill="none" xmlns="http://www.w3.org/2000/svg">
<path d="M35.3431 42.6978C35.1549 42.7531 34.8421 42.7358 34.4048 42.6459C33.9831 42.5513 33.3444 42.3609 32.4886 42.0745C31.6532 41.799 30.7074 41.4972 29.6509 41.169L14.3714 36.5082L12.0904 42.4986C12.2169 42.9152 12.2581 43.2477 12.2139 43.496C12.1651 43.7289 12.0165 44.0835 11.7682 44.5599C11.1727 45.693 10.6394 46.581 10.1683 47.2237C9.71288 47.8618 9.24207 48.2523 8.75585 48.3953C8.52059 48.4644 8.28623 48.4241 8.05278 48.2742C7.82402 48.1397 7.66746 47.9336 7.58311 47.6558C7.47064 47.2855 7.54026 46.7272 7.79196 45.9808L12.1265 35.5293C11.5266 35.0165 11.1259 34.4283 10.9243 33.7648C10.7182 33.0859 10.7306 32.4519 10.9618 31.8629C11.2086 31.2693 11.5385 30.7521 11.9513 30.3114C12.3642 29.8706 13.5273 28.7219 15.4407 26.8653C17.3923 21.7029 18.2908 18.8671 18.1361 18.3579C18.033 18.0184 17.7776 17.9086 17.3698 18.0284C16.9463 18.1529 16.0802 18.6764 14.7715 19.599C13.4786 20.5169 11.8049 21.8409 9.75053 23.571C7.70717 25.281 5.3137 27.4133 2.5701 29.9678C2.34565 30.1851 2.05855 30.3367 1.70881 30.4227C1.37006 30.4887 1.04791 30.4405 0.742351 30.2782C0.432106 30.1004 0.216061 29.811 0.0942176 29.4098C0.0567273 29.2863 0.0435761 29.1305 0.0547642 28.9423C0.0502679 28.7587 0.0568647 28.4711 0.0745546 28.0793C0.0875581 27.672 0.0989362 27.3157 0.108689 27.0103C0.11194 26.9085 0.0817639 26.556 0.0181613 25.9528C-0.029757 25.3449 0.0171484 24.7681 0.158877 24.2222C0.29592 23.6608 0.614958 22.9955 1.11599 22.2264C1.63271 21.4526 2.43021 20.5626 3.50851 19.5565C3.70159 19.3485 3.8954 19.199 4.08992 19.1082C4.27976 19.002 4.39811 19.0261 4.44497 19.1804C4.45903 19.2267 4.28235 19.4887 3.91492 19.9665C3.55848 20.4242 3.2206 21.1119 2.90128 22.0293C7.0031 19.1091 10.0402 17.0146 12.0125 15.7457C13.9958 14.4568 15.6461 13.6186 16.9636 13.2314C17.6851 13.0193 18.4366 13.3279 19.218 14.1571C19.9948 14.9709 20.4277 15.5244 20.5167 15.8176C20.6479 16.2496 20.623 16.7864 20.442 17.4279L18.3648 24.0895C20.9043 21.7631 22.8686 19.9334 24.2578 18.6006C25.6579 17.2478 27.178 15.784 28.8183 14.2093C30.4538 12.6192 31.4929 11.6246 31.9355 11.2256C32.3734 10.8111 32.6708 10.5808 32.8277 10.5347C33.1884 10.4287 33.418 10.5377 33.5164 10.8617C33.5726 11.0469 33.4528 11.6368 33.1569 12.6314C32.872 13.606 32.501 14.5219 32.0437 15.3791C31.5818 16.2208 31.1313 16.7062 30.6921 16.8353C30.5823 16.8676 30.442 16.8836 30.2711 16.8834C30.0955 16.8678 29.9301 16.8576 29.7749 16.8528C27.9855 18.5554 25.7787 20.5992 23.1545 22.9842C20.5459 25.3646 18.482 27.2319 16.9627 28.5861L15.8463 32.1667L30.1923 36.6229C31.5105 37.0254 32.4783 37.3712 33.0957 37.6604C33.7288 37.9449 34.2403 38.3072 34.6302 38.7473C35.0358 39.1827 35.3558 39.7862 35.5901 40.5578C35.9744 41.8231 35.892 42.5364 35.3431 42.6978Z" fill="#353535"/>
<path d="M50.21 27.4358L50.681 28.9866C49.927 30.2168 49.2832 31.0783 48.7495 31.5714C48.2159 32.0644 47.3515 32.453 46.1565 32.737C44.8392 35.7127 43.4042 37.4288 41.8514 37.8852C40.9731 38.1434 40.0865 38.0931 39.1917 37.7342C38.2968 37.3753 37.4798 36.7667 36.7407 35.9082C36.0173 35.0451 35.4705 34.004 35.1003 32.785C34.8004 31.7974 34.797 30.605 35.0902 29.2077C35.3991 27.8059 35.922 26.4336 36.6589 25.0908C37.4067 23.728 38.2884 22.5528 39.304 21.5651C40.3149 20.562 41.3379 19.9083 42.3731 19.604C43.1102 19.3873 43.7257 19.3325 44.2195 19.4394C44.7085 19.531 45.014 19.7774 45.1358 20.1786C45.2296 20.4872 45.157 20.8951 44.9181 21.4024C45.5516 21.3506 46.0226 21.4391 46.3313 21.6677C46.6352 21.8809 46.902 22.3656 47.1316 23.1217C47.3566 23.8624 47.4597 24.849 47.4411 26.0815C47.4381 27.3093 47.2807 28.507 46.969 29.6744L47.519 29.9665L47.8719 29.8628C48.1385 29.7844 48.3786 29.6466 48.592 29.4494C48.8165 29.2321 49.0096 29.0241 49.1713 28.8253C49.3283 28.611 49.6746 28.1479 50.21 27.4358ZM43.5148 22.7729C42.4473 23.9271 41.547 24.9566 40.8138 25.8613C40.0758 26.7505 39.4837 27.6137 39.0375 28.4508C38.5866 29.2725 38.3498 30.0397 38.327 30.7523C38.4598 32.5959 38.5472 33.5871 38.5894 33.7259C38.8987 34.7444 39.7748 35.0415 41.2178 34.6174C41.8922 34.4191 42.8481 33.5162 44.0854 31.9087C43.5985 31.2618 43.2543 30.6066 43.0528 29.9431C42.7576 28.9709 42.6616 27.9234 42.7647 26.8005C42.8632 25.6622 43.1133 24.3197 43.5148 22.7729Z" fill="#353535"/>
<path d="M50.5066 29.3404L50.0497 27.8359C50.5967 26.5994 50.9843 25.5694 51.2126 24.7459C50.6592 24.7237 50.2273 24.6237 49.9171 24.446C49.6225 24.2636 49.4002 23.9256 49.2503 23.4318C49.0816 22.8763 49.1036 22.105 49.3164 21.118C49.5292 20.131 49.8682 19.1657 50.3333 18.2222C50.7985 17.2786 51.2806 16.6158 51.7796 16.2338C51.9664 16.0613 52.1617 15.945 52.3656 15.8851C52.6793 15.7929 52.8807 15.8934 52.9697 16.1866C53.0494 16.4489 52.968 17.0527 52.7254 17.998C55.8064 16.5545 57.7704 15.7083 58.6174 15.4593C58.9468 15.3625 59.1835 15.3265 59.3278 15.3513C59.6366 15.4118 59.9546 15.6713 60.2817 16.1298C60.6089 16.5883 60.8498 17.0722 61.0045 17.5814C61.1029 17.9055 61.0617 18.3042 60.8808 18.7776C60.711 19.2309 60.3833 19.9239 59.8978 20.8566C59.3336 21.9805 58.9262 23.1424 58.6755 24.3423C58.4249 25.5421 58.3792 26.4044 58.5386 26.929C58.7588 27.6543 59.3238 27.8832 60.2335 27.6158C61.1902 27.3345 62.5622 25.8891 64.3494 23.2795L64.8204 24.8303C63.9263 26.5555 63.173 27.9283 62.5603 28.9488C61.9477 29.9693 61.3509 30.8171 60.77 31.4921C60.1845 32.1517 59.6093 32.5644 59.0447 32.7304C58.386 32.924 57.748 32.7922 57.1307 32.3349C56.5088 31.8622 56.0268 31.0626 55.6847 29.9362C55.4832 29.2727 55.4261 28.4658 55.5134 27.5157C55.6007 26.5656 55.8238 25.4999 56.1826 24.3187C56.5524 23.1174 57.003 21.9008 57.5343 20.6689C57.1233 20.8906 56.6597 21.1361 56.1436 21.4055C55.6227 21.6595 55.0729 21.9303 54.494 22.2182C53.9151 22.506 53.4703 22.7292 53.1597 22.8877C52.7684 25.087 51.884 27.2379 50.5066 29.3404Z" fill="#353535"/>
<path d="M68.2867 23.0803L68.4624 23.6589C68.7389 24.5693 69.1819 25.2123 69.7914 25.5878C70.4009 25.9633 71.0742 26.0428 71.8114 25.8261C72.5799 25.6002 73.3181 25.1899 74.0259 24.5952C74.7494 23.996 75.4299 23.2833 76.0674 22.4572C76.7049 21.631 77.4618 20.5513 78.3382 19.2179L78.767 20.6299C77.632 23.2494 76.4592 25.3507 75.2486 26.9336C74.0332 28.501 72.6257 29.5199 71.0259 29.9901C69.63 30.4005 68.3625 30.1931 67.2236 29.3681C66.0847 28.5432 65.234 27.2048 64.6717 25.3531C64.1796 23.7329 64.1187 22.154 64.4889 20.6164C64.8544 19.0635 65.685 17.2981 66.9808 15.3204C67.8682 13.967 68.8227 12.8628 69.8444 12.0078C70.8661 11.1528 71.8396 10.5893 72.765 10.3173C73.5021 10.1006 74.134 10.0998 74.6606 10.3148C75.1982 10.5097 75.5677 10.939 75.7692 11.6025C76.0644 12.5747 75.9911 13.6552 75.5492 14.844C75.1026 16.0174 74.2638 17.3061 73.033 18.71C71.8132 20.0939 70.2311 21.5506 68.2867 23.0803ZM68.0651 21.5066C69.3126 20.5516 70.3165 19.5253 71.0766 18.4278C71.8367 17.3304 72.3419 16.3499 72.5921 15.4863C72.8534 14.6027 72.9325 13.9911 72.8294 13.6517C72.7216 13.2968 72.503 13.1677 72.1737 13.2645C71.8913 13.3475 71.4826 13.661 70.9473 14.2049C70.4277 14.7442 69.9252 15.3962 69.4399 16.1608C68.9702 16.9207 68.5938 17.7626 68.3105 18.6863C68.0272 19.6099 67.9454 20.5501 68.0651 21.5066Z" fill="#353535"/>
<path d="M79.8326 14.2656C81.5699 11.4354 83.403 9.17368 85.3318 7.48052C87.2607 5.78736 88.8369 4.76097 90.0602 4.40136C90.3896 4.30454 90.7376 4.35352 91.1043 4.54829C91.4663 4.72763 91.7796 4.9717 92.0442 5.2805C92.3245 5.5847 92.4905 5.82167 92.542 5.99141C92.6264 6.26916 92.5798 6.50975 92.4024 6.71318C92.2203 6.90117 91.8829 7.16844 91.3902 7.51497C91.575 7.72959 91.8122 8.00443 92.1019 8.33949C92.3916 8.67455 92.621 8.95169 92.7901 9.17092C92.9545 9.37472 93.0648 9.56921 93.121 9.75438C93.2335 10.1247 93.0601 10.9321 92.6009 12.1764C92.1526 13.4007 91.8443 14.2982 91.6759 14.8687C91.5232 15.4347 91.5522 16.0649 91.7631 16.7592C92.1099 17.9011 92.8166 18.3153 93.8831 18.0018C94.981 17.6791 96.3915 16.1635 98.1145 13.4551L98.5433 14.867C95.8921 20.3696 93.7116 23.3721 92.002 23.8746C91.3903 24.0544 90.8903 23.9829 90.5018 23.6601C90.1337 23.3481 89.8325 22.8063 89.5982 22.0348C89.2279 20.8157 89.1384 18.9175 89.3294 16.3401C87.7987 19.513 86.6382 21.7955 85.848 23.1876C85.0531 24.5642 84.2949 25.3586 83.5734 25.5706C83.2283 25.6721 82.708 25.5057 82.0123 25.0714C81.3166 24.6372 80.6243 24.0171 79.9353 23.2111C79.2574 22.3851 78.7661 21.4706 78.4615 20.4676C78.2412 19.7423 78.129 19.1198 78.1249 18.5999C78.1161 18.0646 78.2383 17.4824 78.4914 16.8533C78.7446 16.2243 79.1916 15.3617 79.8326 14.2656ZM90.3285 8.40695C86.8083 11.4419 84.3721 13.8557 83.0201 15.6482C81.6838 17.4361 81.2219 19.009 81.6343 20.3669C81.7842 20.8607 81.9947 21.2443 82.2656 21.5176C82.5319 21.7755 82.814 21.8607 83.112 21.7731C83.2845 21.7224 83.5576 21.5245 83.9311 21.1793C85.2874 19.7385 86.4159 18.0537 87.3165 16.125C88.2124 14.1808 89.2164 11.6081 90.3285 8.40695Z" fill="#353535"/>
<path d="M112.497 4.61355C110.655 8.44943 109.914 10.9615 110.275 12.1496C110.477 12.8132 110.852 13.0643 111.401 12.9029C111.856 12.7692 112.374 12.3648 112.954 11.6898C113.546 10.9948 114.436 9.81724 115.623 8.1572L116.108 9.7543C114.537 12.5693 113.301 14.6304 112.399 15.9375C111.498 17.2446 110.671 18.0088 109.918 18.2301C108.632 18.6081 107.736 17.9639 107.23 16.2973C107.08 15.8036 107.01 15.2944 107.022 14.77C107.034 14.2455 107.095 13.6895 107.207 13.1019C107.33 12.4942 107.529 11.6291 107.803 10.5064C108.072 9.36827 108.39 8.08134 108.757 6.64561C107.999 7.3559 107.147 8.57282 106.201 10.2964C105.576 11.3878 105.073 12.4015 104.69 13.3374C104.304 14.2579 103.898 15.2848 103.473 16.4181C103.06 17.5314 102.738 18.2985 102.507 18.7194C102.287 19.1202 102.012 19.369 101.683 19.4658C101.181 19.6134 100.561 19.2324 99.8236 18.3231C99.0861 17.4137 98.5088 16.2723 98.0918 14.8989C97.834 14.0502 97.7266 13.3591 97.7695 12.8254C97.8282 12.2871 98.0141 11.4929 98.3273 10.4427C98.9127 8.48892 99.4828 7.01871 100.037 6.03207C100.587 5.03001 101.223 4.42294 101.944 4.21086C102.446 4.06333 102.872 4.03063 103.222 4.11277C103.587 4.1903 103.823 4.40653 103.931 4.76144C103.978 4.91574 103.98 5.0916 103.938 5.289C103.895 5.4864 103.832 5.67299 103.749 5.84875C103.681 6.0199 103.52 6.3614 103.266 6.87325C101.607 10.3021 100.9 12.4177 101.144 13.2201C101.28 13.6676 101.497 13.8476 101.795 13.76C101.983 13.7047 102.255 13.3054 102.61 12.5623C102.976 11.7991 103.437 10.8147 103.994 9.60904C104.561 8.38332 105.266 7.07522 106.108 5.68475C106.966 4.28967 107.992 2.88706 109.187 1.47693C109.844 0.661634 110.448 0.173305 110.997 0.0119406C111.248 -0.0618259 111.594 0.206192 112.035 0.815995C112.493 1.42119 112.827 2.07098 113.037 2.76537C113.141 3.10485 112.96 3.72091 112.497 4.61355Z" fill="#353535"/>
<path d="M59.2238 51.7643V54.5322H67.7034L67.6637 51.7643H64.9297L56.252 38.1979L64.0183 30.0113H66.7524V27.2435H57.9162V30.0113H60.2937L53.5972 37.1064C50.4273 40.498 49.5159 41.6285 49.3574 41.8234H49.2782C49.2782 41.7845 49.3178 39.2505 49.3178 36.2098V30.0113H52.0915V27.2435H43.4535V30.0113H46.2271V51.7643H43.4535V54.5322H52.0519V51.7643H49.3178V45.4879L54.1519 40.42L61.4428 51.7643H59.2238Z" fill="#353535"/>
<path d="M75.7845 51.7643V30.0113H78.4789V27.2435H69.9598V30.0113H72.6542V51.7643H69.9598V54.5322H78.4789V51.7643H75.7845Z" fill="#353535"/>
<path d="M81.2532 40.8488C81.2532 49.8541 86.4836 55 93.8537 55C101.263 55 106.494 49.8541 106.494 40.8878C106.494 31.8826 101.263 26.7367 93.8537 26.7367C86.4836 26.7367 81.2532 31.8826 81.2532 40.8488ZM84.3835 40.8488C84.3835 33.5199 88.3063 29.6605 93.8933 29.6605C99.401 29.6605 103.363 33.4809 103.363 40.8878C103.363 48.2558 99.401 52.0762 93.8933 52.0762C88.3063 52.0762 84.3835 48.2168 84.3835 40.8488Z" fill="#353535"/>
<path d="M112.286 46.1117H109.433V54.5322H112.167L112.206 52.1152H112.286C113.355 53.7135 115.812 55 119.259 55C124.252 55 127.699 52.3491 127.699 47.3981C127.699 41.6285 122.984 40.3421 118.665 38.9776C115.931 38.12 112.761 37.1844 112.761 33.7148C112.761 30.83 114.782 29.3486 118.031 29.3486C121.756 29.3486 124.331 31.4537 124.331 34.4165V35.742H127.145V27.2435H124.411L124.371 29.9334H124.292C123.42 28.374 121.201 26.7367 117.476 26.7367C112.84 26.7367 109.552 29.2706 109.552 33.8707C109.552 39.2505 113.91 40.6149 117.358 41.7455C120.765 42.876 124.45 43.5387 124.45 47.5541C124.45 50.5948 122.35 52.3881 118.665 52.3881C115.059 52.3881 112.286 50.5948 112.286 47.4371V46.1117Z" fill="#353535"/>
<path d="M146.52 51.7643V54.5322H155L154.96 51.7643H152.226L143.549 38.1979L151.315 30.0113H154.049V27.2435H145.213V30.0113H147.59L140.894 37.1064C137.724 40.498 136.813 41.6285 136.654 41.8234H136.575C136.575 41.7845 136.614 39.2505 136.614 36.2098V30.0113H139.388V27.2435H130.75V30.0113H133.524V51.7643H130.75V54.5322H139.349V51.7643H136.614V45.4879L141.449 40.42L148.739 51.7643H146.52Z" fill="#353535"/>
</svg>
