<svg width="139" height="30" viewBox="0 0 139 30" fill="none" xmlns="http://www.w3.org/2000/svg">
<path d="M11.7382 30C9.45917 30 7.24883 29.6961 5.10713 29.0884C2.99289 28.453 1.29051 27.6381 0 26.6436L2.26526 21.5884C3.50086 22.5 4.96984 23.232 6.67222 23.7845C8.3746 24.337 10.077 24.6133 11.7793 24.6133C13.6739 24.6133 15.0743 24.337 15.9804 23.7845C16.8865 23.2044 17.3395 22.4448 17.3395 21.5055C17.3395 20.8149 17.065 20.2486 16.5158 19.8066C15.9941 19.337 15.3077 18.9641 14.4565 18.6878C13.6327 18.4116 12.507 18.1077 11.0792 17.7762C8.88256 17.2514 7.08408 16.7265 5.68374 16.2017C4.2834 15.6768 3.07526 14.8343 2.05933 13.674C1.07085 12.5138 0.576612 10.9669 0.576612 9.03315C0.576612 7.34807 1.02966 5.82873 1.93577 4.47514C2.84187 3.09392 4.20103 2.00276 6.01323 1.20166C7.8529 0.400552 10.0907 0 12.7266 0C14.5663 0 16.3648 0.220994 18.1221 0.662982C19.8794 1.10497 21.417 1.74033 22.735 2.56906L20.6756 7.66575C18.0122 6.14641 15.3488 5.38674 12.6855 5.38674C10.8183 5.38674 9.43172 5.69061 8.52561 6.29834C7.64697 6.90608 7.20764 7.70718 7.20764 8.70166C7.20764 9.69613 7.71561 10.442 8.73154 10.9392C9.77494 11.4088 11.3538 11.8785 13.468 12.3481C15.6646 12.8729 17.4631 13.3978 18.8634 13.9227C20.2638 14.4475 21.4582 15.2762 22.4467 16.4088C23.4626 17.5414 23.9706 19.0746 23.9706 21.0083C23.9706 22.6657 23.5038 24.1851 22.5702 25.5663C21.6641 26.9199 20.2912 27.9972 18.4516 28.7983C16.6119 29.5995 14.3741 30 11.7382 30Z" fill="white"/>
<path d="M50.8528 24.116V29.5028H28.5297V0.497236H50.3174V5.88398H35.1608V12.1823H48.5464V17.4033H35.1608V24.116H50.8528Z" fill="white"/>
<path d="M70.0435 30C67.0506 30 64.346 29.3508 61.9297 28.0525C59.5409 26.7541 57.6601 24.9724 56.2872 22.7072C54.9418 20.4144 54.2691 17.8453 54.2691 15C54.2691 12.1547 54.9418 9.59945 56.2872 7.33425C57.6601 5.04144 59.5409 3.24586 61.9297 1.94751C64.346 0.649171 67.0506 0 70.0435 0C73.0364 0 75.7272 0.649171 78.1161 1.94751C80.5049 3.24586 82.3857 5.04144 83.7586 7.33425C85.1315 9.59945 85.8179 12.1547 85.8179 15C85.8179 17.8453 85.1315 20.4144 83.7586 22.7072C82.3857 24.9724 80.5049 26.7541 78.1161 28.0525C75.7272 29.3508 73.0364 30 70.0435 30ZM70.0435 24.2818C71.7459 24.2818 73.2835 23.895 74.6564 23.1215C76.0293 22.3204 77.1001 21.2155 77.8689 19.8066C78.6652 18.3978 79.0633 16.7956 79.0633 15C79.0633 13.2044 78.6652 11.6022 77.8689 10.1934C77.1001 8.78453 76.0293 7.69337 74.6564 6.91989C73.2835 6.11878 71.7459 5.71823 70.0435 5.71823C68.3411 5.71823 66.8035 6.11878 65.4306 6.91989C64.0577 7.69337 62.9731 8.78453 62.1769 10.1934C61.408 11.6022 61.0236 13.2044 61.0236 15C61.0236 16.7956 61.408 18.3978 62.1769 19.8066C62.9731 21.2155 64.0577 22.3204 65.4306 23.1215C66.8035 23.895 68.3411 24.2818 70.0435 24.2818Z" fill="white"/>
<path d="M92.9187 14.2659H96.9709V28.3256H92.9187V14.2659ZM94.9448 12.3059C94.2001 12.3059 93.5941 12.0881 93.1265 11.6526C92.6589 11.217 92.4251 10.677 92.4251 10.0323C92.4251 9.38771 92.6589 8.84763 93.1265 8.41207C93.5941 7.97652 94.2001 7.75874 94.9448 7.75874C95.6894 7.75874 96.2955 7.96781 96.7631 8.38594C97.2306 8.80407 97.4644 9.32674 97.4644 9.95393C97.4644 10.6334 97.2306 11.1996 96.7631 11.6526C96.2955 12.0881 95.6894 12.3059 94.9448 12.3059Z" fill="white"/>
<path d="M109.226 14.0569C110.957 14.0569 112.351 14.5795 113.408 15.6248C114.481 16.6702 115.018 18.2207 115.018 20.2766V28.3256H110.966V20.9038C110.966 19.7887 110.724 18.9612 110.239 18.4211C109.754 17.8636 109.053 17.5848 108.135 17.5848C107.113 17.5848 106.299 17.9071 105.693 18.5518C105.087 19.179 104.784 20.1198 104.784 21.3742V28.3256H100.732V14.2659H104.602V15.9123C105.139 15.32 105.806 14.867 106.602 14.5534C107.399 14.2224 108.273 14.0569 109.226 14.0569Z" fill="white"/>
<path d="M125.597 28.5347C124.108 28.5347 122.766 28.2298 121.571 27.62C120.393 26.9928 119.467 26.1304 118.792 25.0328C118.134 23.9352 117.805 22.6895 117.805 21.2958C117.805 19.902 118.134 18.6563 118.792 17.5587C119.467 16.4611 120.393 15.6074 121.571 14.9976C122.766 14.3704 124.108 14.0569 125.597 14.0569C127.069 14.0569 128.351 14.3704 129.442 14.9976C130.55 15.6074 131.355 16.4872 131.857 17.6371L128.714 19.3358C127.987 18.0465 126.939 17.4019 125.571 17.4019C124.515 17.4019 123.64 17.7503 122.948 18.4472C122.255 19.1441 121.909 20.0936 121.909 21.2958C121.909 22.4979 122.255 23.4474 122.948 24.1443C123.64 24.8412 124.515 25.1896 125.571 25.1896C126.957 25.1896 128.004 24.545 128.714 23.2557L131.857 24.9805C131.355 26.0956 130.55 26.9667 129.442 27.5939C128.351 28.2211 127.069 28.5347 125.597 28.5347Z" fill="white"/>
<path d="M136.23 28.5347C135.52 28.5347 134.923 28.2907 134.438 27.8029C133.953 27.3151 133.711 26.7053 133.711 25.9736C133.711 25.2244 133.953 24.6234 134.438 24.1704C134.923 23.7 135.52 23.4648 136.23 23.4648C136.94 23.4648 137.538 23.7 138.023 24.1704C138.508 24.6234 138.75 25.2244 138.75 25.9736C138.75 26.7053 138.508 27.3151 138.023 27.8029C137.538 28.2907 136.94 28.5347 136.23 28.5347Z" fill="white"/>
<path fill-rule="evenodd" clip-rule="evenodd" d="M76.7736 15.3767H63.4347V14.435H76.7736V15.3767Z" fill="white"/>
<path fill-rule="evenodd" clip-rule="evenodd" d="M69.7531 21.7334V8.31366L70.6892 8.31366V21.7334H69.7531Z" fill="white"/>
<path d="M73 15C73 16.6569 71.6569 18 70 18C68.3431 18 67 16.6569 67 15C67 13.3431 68.3431 12 70 12C71.6569 12 73 13.3431 73 15Z" fill="white"/>
</svg>
